<?xml version="1.0" encoding="UTF-8"?>
<svg width="99px" height="30px" viewBox="0 0 99 30" version="1.1" xmlns="http://www.w3.org/2000/svg" xmlns:xlink="http://www.w3.org/1999/xlink">
    <!-- Generator: Sketch 51.2 (57519) - http://www.bohemiancoding.com/sketch -->
    <title>brand logo</title>
    <desc>Created with Sketch.</desc>
    <defs></defs>
    <g id="Symbols" stroke="none" stroke-width="1" fill="none" fill-rule="evenodd">
        <g id="molecules/topbar" transform="translate(-76.000000, -19.000000)" fill="#1F3B7F">
            <g id="Topbar">
                <g id="topbar-copy-12">
                    <g id="brand-logo" transform="translate(76.000000, 19.000000)">
                        <g id="logo">
                            <path d="M11.9534049,7.42229357 L8.94187317,14.7717249 L14.9663854,14.7717249 L11.9534049,7.42229357 L11.9534049,7.42229357 Z M18.8215902,24.2553914 L16.7483854,19.1728912 L7.15842439,19.1728912 L5.08473659,24.2553914 L0,24.2553914 L9.71841951,1.43408247 L14.3182976,1.43408247 L24.0362341,24.2553914 L18.8215902,24.2553914 L18.8215902,24.2553914 Z" id="Fill-1"></path>
                            <path d="M38.7041707,15.547635 C38.7041707,12.6664417 36.7608732,10.7565836 34.4611756,10.7565836 C32.1609951,10.7565836 30.2495707,12.6664417 30.2495707,15.547635 L30.2495707,15.6122941 C30.2495707,18.4934874 32.1609951,20.4033455 34.4611756,20.4033455 C36.7608732,20.4033455 38.7041707,18.5248519 38.7041707,15.6122941 L38.7041707,15.547635 L38.7041707,15.547635 Z M35.7245122,24.5782047 C33.1012537,24.5782047 31.4810341,23.381045 30.3142829,21.9889428 L30.3142829,29.4343978 L25.3913268,29.4343978 L25.3913268,6.90453768 L30.3142829,6.90453768 L30.3142829,9.39777594 C31.5129073,7.77888406 33.1659659,6.58172437 35.7245122,6.58172437 C39.7743366,6.58172437 43.6295415,9.7538839 43.6295415,15.547635 L43.6295415,15.6122941 C43.6295415,21.4060452 39.8395317,24.5782047 35.7245122,24.5782047 L35.7245122,24.5782047 Z" id="Fill-3"></path>
                            <path d="M53.374039,10.5297939 C51.3341561,10.5297939 50.0056244,11.9870379 49.6154195,14.2201919 L57.0355902,14.2201919 C56.7439024,12.0188849 55.4472439,10.5297939 53.374039,10.5297939 L53.374039,10.5297939 Z M61.7639268,17.2963277 L49.6806146,17.2963277 C50.1674049,19.5289992 51.7224293,20.6947943 53.9255415,20.6947943 C55.5771512,20.6947943 56.7757756,20.1770385 58.1356976,18.9147371 L60.9540585,21.4060452 C59.3357707,23.4128921 57.0022683,24.6433464 53.8608293,24.6433464 C48.6437707,24.6433464 44.7890488,20.9862431 44.7890488,15.6774358 L44.7890488,15.6122941 C44.7890488,10.6600773 48.3206927,6.58172437 53.374039,6.58172437 C59.1720585,6.58172437 61.828639,11.081327 61.828639,16.0002492 L61.828639,16.0653909 C61.828639,16.5517822 61.7972488,16.843231 61.7639268,17.2963277 L61.7639268,17.2963277 Z" id="Fill-5"></path>
                            <path d="M74.0684195,11.7274362 C70.7970732,11.7274362 68.7885805,13.702436 68.7885805,17.8454481 L68.7885805,24.2553914 L63.8651415,24.2553914 L63.8651415,6.90453768 L68.7885805,6.90453768 L68.7885805,10.3999931 C69.7935512,8.00519115 71.411839,6.45144097 74.3287171,6.58172437 L74.3287171,11.7274362 L74.0684195,11.7274362" id="Fill-6"></path>
                            <polygon id="Fill-7" points="76.0097854 24.2553914 80.9332244 24.2553914 80.9332244 6.90453768 76.0097854 6.90453768"></polygon>
                            <path d="M94.2132293,17.2625505 C93.3695561,16.8745955 92.268,16.6149938 91.0698585,16.6149938 C88.9647805,16.6149938 87.668122,17.4574931 87.668122,19.0112433 L87.668122,19.076385 C87.668122,20.4033455 88.769678,21.1792556 90.3580244,21.1792556 C92.6582049,21.1792556 94.2132293,19.9174367 94.2132293,18.1368969 L94.2132293,17.2625505 L94.2132293,17.2625505 Z M94.1147122,24.2553914 L94.1147122,22.3768978 C92.9165707,23.7038584 91.264961,24.5782047 88.8681951,24.5782047 C85.5949171,24.5782047 82.9064634,22.7016412 82.9064634,19.2693974 L82.9064634,19.2042557 C82.9064634,15.4173516 85.7895366,13.6705889 89.9045561,13.6705889 C91.6532341,13.6705889 92.9165707,13.9620377 94.1480341,14.3818398 L94.1480341,14.090391 C94.1480341,12.0521796 92.8846976,10.9177489 90.4232195,10.9177489 C88.5431854,10.9177489 87.2146537,11.2743394 85.628239,11.857237 L84.3962927,8.10217991 C86.3082,7.26112818 88.1863024,6.71152524 91.1345707,6.71152524 C96.5129268,6.71152524 98.8778195,9.49428216 98.8778195,14.1888274 L98.8778195,24.2553914 L94.1147122,24.2553914 L94.1147122,24.2553914 Z" id="Fill-8"></path>
                            <path d="M81.0631317,2.80977867 C81.0631317,4.24000088 79.9031415,5.39904061 78.4717463,5.39904061 C77.0403512,5.39904061 75.879878,4.24000088 75.879878,2.80977867 C75.879878,1.37955645 77.0403512,0.220034187 78.4717463,0.220034187 C79.9031415,0.220034187 81.0631317,1.37955645 81.0631317,2.80977867" id="Fill-9"></path>
                        </g>
                    </g>
                </g>
            </g>
        </g>
    </g>
</svg>