<?xml version="1.0" encoding="UTF-8"?>
<svg width="130px" height="24px" viewBox="0 0 130 24" version="1.1" xmlns="http://www.w3.org/2000/svg" xmlns:xlink="http://www.w3.org/1999/xlink">
    <!-- Generator: Sketch 51.1 (57501) - http://www.bohemiancoding.com/sketch -->
    <title>fd-full-logo</title>
    <desc>Created with Sketch.</desc>
    <defs></defs>
    <g id="0.1-Login" stroke="none" stroke-width="1" fill="none" fill-rule="evenodd">
        <g transform="translate(-1118.000000, -845.000000)" fill="#FFFFFF" fill-rule="nonzero" id="fd-full-logo">
            <g transform="translate(1118.000000, 845.000000)">
                <rect id="Rectangle-path" x="17.35" y="6.84" width="3.71" height="16.11"></rect>
                <path d="M32.25,10.31 C32.25,10.31 31.97,10.27 31.77,10.23 C31.45,10.15 31.04,10.15 30.64,10.15 C28.86,10.15 26.97,11.12 26.97,14.15 L26.97,22.95 L23.26,22.95 L23.26,6.84 L26.97,6.84 L26.97,9.02 C27.62,7.85 29.19,6.47 31.37,6.47 C31.66,6.47 32.06,6.51 32.26,6.55 L32.26,10.31 L32.25,10.31 Z" id="Shape"></path>
                <path d="M42.5,11.04 C41.61,10.27 40.28,9.75 39.23,9.75 C37.73,9.75 37.01,10.52 37.01,11.37 C37.01,12.1 37.3,12.94 39.59,13.51 C43.79,14.6 45.21,15.82 45.21,18.56 C45.21,21.31 43.27,23.33 39.07,23.33 C36.65,23.33 34.42,22.6 32.56,20.99 L34.62,18.16 C35.91,19.49 37.53,20.06 39.06,20.06 C40.67,20.06 41.4,19.38 41.4,18.44 C41.4,17.59 40.71,16.99 38.45,16.38 C34.54,15.37 33.28,13.75 33.28,11.21 C33.28,9.11 34.94,6.48 39.22,6.48 C41.2,6.48 43.1,7.13 44.47,8.3 L42.5,11.04 Z" id="Shape"></path>
                <path d="M55.39,19.55 L56.64,22.54 C55.87,23.02 54.62,23.31 53.45,23.31 C49.85,23.31 48.12,21.45 48.12,18.02 L48.12,10.07 L45.86,10.07 L45.86,6.84 L48.12,6.84 L48.12,3.44 L51.84,3.44 L51.84,6.83 L55.51,6.83 L55.51,10.06 L51.84,10.06 L51.84,18.06 C51.84,19.43 52.57,20.08 53.65,20.08 C54.38,20.08 54.82,19.92 55.39,19.55" id="Shape"></path>
                <path d="M107.52,19.55 L108.77,22.54 C108,23.02 106.75,23.31 105.62,23.31 C101.99,23.31 100.25,21.45 100.25,18.02 L100.25,10.07 L97.99,10.07 L97.99,6.84 L100.25,6.84 L100.25,3.44 L103.96,3.44 L103.96,6.83 L107.64,6.83 L107.64,10.06 L103.96,10.06 L103.96,18.06 C103.96,19.43 104.65,20.08 105.78,20.08 C106.51,20.08 106.96,19.92 107.52,19.55" id="Shape"></path>
                <path d="M89.31,20.4 C91.37,20.4 93.31,18.54 93.31,16.2 C92.18,15.8 90.64,15.55 89.27,15.55 C86.93,15.55 85.84,16.84 85.84,18.05 C85.84,19.6 87.33,20.4 89.31,20.4 Z M83.86,7.97 C83.86,7.97 84.14,7.81 84.39,7.68 C85.96,6.92 87.78,6.47 89.43,6.47 C94.6,6.47 97.02,8.37 97.02,13.01 L97.02,22.94 L93.31,22.94 L93.31,21.08 C92.26,22.58 90.77,23.3 88.38,23.3 C84.46,23.3 82.37,21.16 82.37,18.05 C82.37,14.9 84.63,12.68 88.71,12.68 C90.49,12.68 92.35,13.05 93.36,13.37 L93.36,13.08 C93.36,10.86 92.27,9.85 89.36,9.85 C87.87,9.85 86.53,10.22 85.28,10.98 L83.86,7.97 Z" id="Shape"></path>
                <path d="M116.04,20.4 C118.1,20.4 120.04,18.54 120.04,16.2 C118.95,15.8 117.37,15.55 116,15.55 C113.66,15.55 112.57,16.84 112.57,18.05 C112.57,19.6 114.06,20.4 116.04,20.4 Z M110.63,7.97 C110.63,7.97 110.87,7.81 111.11,7.68 C112.68,6.92 114.5,6.47 116.16,6.47 C121.33,6.47 123.75,8.37 123.75,13.01 L123.75,22.94 L120.03,22.94 L120.03,21.08 C118.98,22.58 117.49,23.3 115.15,23.3 C111.19,23.3 109.09,21.16 109.09,18.05 C109.09,14.9 111.35,12.68 115.47,12.68 C117.2,12.68 119.1,13.05 120.07,13.37 L120.07,13.08 C120.07,10.86 118.98,9.85 116.07,9.85 C114.58,9.85 113.24,10.22 111.99,10.98 L110.63,7.97 Z" id="Shape"></path>
                <path d="M70.25,19.39 C75.02,19.39 78.08,16.2 78.08,11.8 L78.08,11.72 C78.08,7.32 75.01,4.05 70.25,4.05 L65.81,4.05 L65.81,19.4 L70.25,19.4 L70.25,19.39 Z M61.85,0.46 L70.25,0.46 C77.36,0.46 82.24,5.31 82.24,11.69 L82.24,11.73 C82.24,18.11 77.36,23.04 70.25,23.04 L61.85,23.04 L61.85,0.46 Z" id="Shape"></path>
                <polygon id="Shape" points="0.31 0.46 16.09 0.46 16.09 4.09 4.26 4.09 4.26 10.23 14.64 10.23 14.64 13.82 4.26 13.82 4.26 23.03 0.31 23.03"></polygon>
                <path d="M127.35,18.67 C128.56,18.67 129.57,19.68 129.57,20.89 C129.57,22.1 128.56,23.11 127.35,23.11 C126.1,23.11 125.13,22.1 125.13,20.89 C125.13,19.68 126.1,18.67 127.35,18.67 Z M127.35,22.75 C128.36,22.75 129.21,21.9 129.21,20.89 C129.21,19.88 128.36,19.03 127.35,19.03 C126.3,19.03 125.45,19.88 125.45,20.89 C125.45,21.9 126.3,22.75 127.35,22.75 Z M127.43,21.21 L126.95,21.21 L126.95,21.89 L126.58,21.89 L126.58,19.87 L127.43,19.87 C127.83,19.87 128.16,20.03 128.16,20.52 C128.16,20.84 128,21.05 127.79,21.13 L128.19,21.89 L127.79,21.89 L127.43,21.21 Z M126.95,20.2 L126.95,20.85 L127.43,20.85 C127.67,20.85 127.79,20.77 127.79,20.53 C127.79,20.33 127.67,20.21 127.43,20.21 L126.95,20.21 L126.95,20.2 Z" id="Shape"></path>
            </g>
        </g>
    </g>
</svg>