<?xml version="1.0" encoding="UTF-8"?>
<svg width="153px" height="28px" viewBox="0 0 153 28" version="1.1" xmlns="http://www.w3.org/2000/svg" xmlns:xlink="http://www.w3.org/1999/xlink">
    <!-- Generator: Sketch 51.2 (57519) - http://www.bohemiancoding.com/sketch -->
    <title>Group</title>
    <desc>Created with Sketch.</desc>
    <defs></defs>
    <g id="1.-Welcome" stroke="none" stroke-width="1" fill="none" fill-rule="evenodd">
        <g id="1.0-Welcome" transform="translate(-564.000000, -28.000000)">
            <g id="atom/logo/gdpr" transform="translate(564.000000, 28.000000)">
                <g id="Group">
                    <path d="M64,0.499862 L149,0.499862 C151.209139,0.499862 153,2.290723 153,4.499862 L153,23.5 C153,25.709139 151.209139,27.5 149,27.5 L64,27.5 C61.790861,27.5 60,25.709139 60,23.5 L60,4.499862 C60,2.290723 61.790861,0.499862 64,0.499862 Z M76.6467377,10.5817698 L78.8284377,8.26943735 C78.2012792,7.69302696 77.4707173,7.25737448 76.6367299,6.96246684 C75.8027426,6.6675592 74.9854472,6.52010759 74.1848193,6.52010759 C73.5176295,6.52010759 72.8571214,6.60388691 72.2032753,6.77144807 C71.5494292,6.93900923 70.9623109,7.20375189 70.4419028,7.565684 C69.9214947,7.9276161 69.5011713,8.39007796 69.1809202,8.95308346 C68.8606691,9.51608896 68.7005459,10.1930259 68.7005459,10.9839146 C68.7005459,11.6273494 68.8039588,12.1735906 69.0107876,12.6226545 C69.2176165,13.0717184 69.4911602,13.4537521 69.8314271,13.7687671 C70.1716939,14.0837821 70.5586583,14.3418224 70.9923317,14.5428958 C71.4260051,14.7439692 71.8696797,14.9182302 72.3233689,15.065684 C72.7904018,15.2131378 73.2073892,15.3505359 73.5743436,15.4778824 C73.9412981,15.6052289 74.2482008,15.7459781 74.4950611,15.9001344 C74.7419213,16.0542907 74.9320676,16.2252005 75.0655056,16.412869 C75.1989436,16.6005375 75.2656616,16.8284172 75.2656616,17.0965151 C75.2656616,17.3780178 75.2122872,17.6193023 75.1055368,17.8203757 C74.9987864,18.0214491 74.8553427,18.1823054 74.6752015,18.3029494 C74.4950602,18.4235934 74.2848985,18.5107239 74.0447102,18.5643435 C73.8045218,18.6179631 73.5576652,18.6447725 73.3041331,18.6447725 C72.7436936,18.6447725 72.1799266,18.500672 71.6128152,18.2124668 C71.0457038,17.9242616 70.5886856,17.5656861 70.2417468,17.1367296 L68,19.4289548 C68.6271585,20.0857945 69.4144308,20.5918216 70.3618404,20.9470513 C71.30925,21.3022809 72.2900045,21.4798931 73.3041331,21.4798931 C73.9980106,21.4798931 74.6718623,21.3860603 75.3257083,21.1983918 C75.9795544,21.0107233 76.5600009,20.7225224 77.0670652,20.3337805 C77.5741296,19.9450386 77.9777734,19.4524162 78.2780088,18.8558985 C78.5782443,18.2593807 78.7283598,17.5522833 78.7283598,16.7345848 C78.7283598,16.0241255 78.588252,15.4309679 78.3080322,14.9550942 C78.0278125,14.4792205 77.6742071,14.0804309 77.2472056,13.7587135 C76.8202041,13.4369961 76.3465064,13.1789557 75.8260983,12.9845848 C75.3056901,12.7902139 74.8053052,12.6126017 74.3249285,12.451743 C73.9913336,12.3445038 73.6911026,12.2406175 73.4242267,12.1400808 C73.1573507,12.0395441 72.9271737,11.9289554 72.7336886,11.8083113 C72.5402035,11.6876673 72.3934239,11.546918 72.2933455,11.3860593 C72.193267,11.2252006 72.1432285,11.0241302 72.1432285,10.7828422 C72.1432285,10.5013394 72.2066106,10.2701085 72.3333767,10.0891424 C72.4601427,9.90817639 72.61693,9.76072478 72.8037432,9.64678319 C72.9905563,9.5328416 73.200718,9.45576463 73.4342345,9.41554995 C73.6677509,9.37533527 73.897928,9.35522823 74.1247726,9.35522823 C74.5651179,9.35522823 75.0221361,9.46581694 75.4958409,9.68699767 C75.9695457,9.9081784 76.3531742,10.2064328 76.6467377,10.5817698 Z M80.9901222,21.1179628 L90.8778269,21.1179628 L90.8778269,18.182306 L84.2926956,18.182306 L84.2926956,15.2265419 L90.177281,15.2265419 L90.177281,12.4718502 L84.2926956,12.4718502 L84.2926956,9.79758748 L90.5175461,9.79758748 L90.5175461,6.88203788 L80.9901222,6.88203788 L80.9901222,21.1179628 Z M105.609306,19.1474534 L103.22745,16.8954427 C102.920543,17.3243993 102.513563,17.6729213 102.006499,17.9410191 C101.499434,18.209117 100.905644,18.3431639 100.22511,18.3431639 C99.6379834,18.3431639 99.0975677,18.2359264 98.6038472,18.0214481 C98.1101266,17.8069698 97.6864674,17.5087154 97.3328568,17.126676 C96.9792461,16.7446365 96.7023665,16.2855258 96.5022095,15.7493301 C96.3020525,15.2131344 96.2019756,14.623328 96.2019756,13.9798931 C96.2019756,13.3498632 96.3020525,12.7701102 96.5022095,12.240617 C96.7023665,11.7111237 96.982582,11.252013 97.3428646,10.8632711 C97.7031471,10.4745292 98.1334781,10.1695725 98.6338705,9.94839177 C99.134263,9.72721104 99.6846864,9.61662233 100.285157,9.61662233 C100.832253,9.61662233 101.365997,9.72385987 101.886405,9.93833815 C102.406813,10.1528164 102.827136,10.4812314 103.147388,10.9235928 L105.469197,8.59115316 C104.868726,7.90750363 104.08479,7.38807183 103.117364,7.03284217 C102.149939,6.67761251 101.165849,6.50000035 100.165064,6.50000035 C99.0842161,6.50000035 98.0767744,6.67426134 97.1427086,7.02278855 C96.2086428,7.37131576 95.3946833,7.87064053 94.7008058,8.52077783 C94.0069283,9.17091513 93.4631767,9.95844076 93.0695347,10.8833784 C92.6758927,11.808316 92.4790746,12.8404772 92.4790746,13.9798931 C92.4790746,15.0924992 92.6725568,16.1112558 93.0595269,17.0361934 C93.446497,17.961131 93.9802409,18.755359 94.6607746,19.4189012 C95.3413083,20.0824433 96.1452601,20.5951728 97.072654,20.9571049 C98.000048,21.319037 99.0108255,21.5000003 100.105017,21.5000003 C101.305959,21.5000003 102.366775,21.2888765 103.287497,20.8666223 C104.208219,20.4443682 104.982147,19.8713176 105.609306,19.1474534 Z M119.079802,15.7493301 L119.079802,6.88203788 L115.657135,6.88203788 L115.657135,15.4678288 C115.657135,15.8565707 115.610433,16.2251997 115.517026,16.5737269 C115.42362,16.9222541 115.270168,17.2339132 115.056668,17.5087135 C114.843167,17.7835138 114.566287,18.00134 114.22602,18.1621987 C113.885753,18.3230575 113.475438,18.4034856 112.995061,18.4034856 C112.514684,18.4034856 112.104369,18.3230575 111.764102,18.1621987 C111.423835,18.00134 111.150291,17.7835138 110.943462,17.5087135 C110.736634,17.2339132 110.583182,16.9222541 110.483104,16.5737269 C110.383025,16.2251997 110.332987,15.8565707 110.332987,15.4678288 L110.332987,6.88203788 L106.930335,6.88203788 L106.930335,15.7493301 C106.930335,16.6072432 107.070443,17.3880665 107.350663,18.0918234 C107.630883,18.7955803 108.031191,19.3987914 108.551599,19.9014749 C109.072007,20.4041584 109.705828,20.7962456 110.45308,21.0777483 C111.200333,21.3592511 112.04098,21.5000003 112.975045,21.5000003 C113.895768,21.5000003 114.733078,21.3592511 115.487003,21.0777483 C116.240927,20.7962456 116.884756,20.4041584 117.418508,19.9014749 C117.95226,19.3987914 118.362575,18.7955803 118.649467,18.0918234 C118.936359,17.3880665 119.079802,16.6072432 119.079802,15.7493301 Z M129.427866,21.1179628 L133.430985,21.1179628 L129.7281,15.0254695 C130.648822,14.7439668 131.369376,14.2748026 131.889784,13.6179628 C132.410192,12.9611231 132.670393,12.1501392 132.670393,11.1849869 C132.670393,10.3672885 132.516941,9.68364921 132.210034,9.13404861 C131.903126,8.584448 131.492811,8.14209318 130.979075,7.80697086 C130.465338,7.47184854 129.884892,7.23391526 129.237718,7.09316389 C128.590544,6.95241251 127.9267,6.88203788 127.246166,6.88203788 L121.841955,6.88203788 L121.841955,21.1179628 L125.204575,21.1179628 L125.204575,15.4678288 L126.36548,15.4678288 L129.427866,21.1179628 Z M129.287757,11.2453087 C129.287757,11.6072408 129.211031,11.902144 129.057577,12.1300272 C128.904124,12.3579103 128.707306,12.5321713 128.467117,12.6528154 C128.226929,12.7734594 127.960057,12.8572387 127.666493,12.9041558 C127.37293,12.951073 127.086042,12.9745312 126.805823,12.9745312 L125.184559,12.9745312 L125.184559,9.65683681 L127.005979,9.65683681 C127.259511,9.65683681 127.523047,9.67694385 127.796595,9.71715853 C128.070143,9.7573732 128.316999,9.83445018 128.537172,9.94839177 C128.757344,10.0623334 128.937483,10.2231897 129.077593,10.4309655 C129.217703,10.6387413 129.287757,10.9101863 129.287757,11.2453087 Z M135.112295,21.1179628 L145,21.1179628 L145,18.182306 L138.414869,18.182306 L138.414869,15.2265419 L144.299454,15.2265419 L144.299454,12.4718502 L138.414869,12.4718502 L138.414869,9.79758748 L144.639719,9.79758748 L144.639719,6.88203788 L135.112295,6.88203788 L135.112295,21.1179628 Z" id="Secure" fill="#26CBE5"></path>
                    <path d="M13.2636852,21.2718121 C12.569108,21.63423 11.7576671,21.9295291 10.8293381,22.1577181 C9.90100907,22.3859072 8.88921239,22.5 7.79391771,22.5 C6.65855127,22.5 5.61336196,22.3187938 4.65831843,21.9563758 C3.70327489,21.5939579 2.8818162,21.0838959 2.19391771,20.4261745 C1.50601922,19.7684531 0.968397882,18.9798704 0.581037567,18.0604027 C0.193677252,17.140935 0,16.1174553 0,14.9899329 C0,13.8489876 0.197016515,12.8154409 0.591055456,11.8892617 C0.985094397,10.9630826 1.52939426,10.1744999 2.22397138,9.52348993 C2.91854849,8.87247997 3.73332866,8.37248497 4.66833631,8.02348993 C5.60334397,7.6744949 6.61180139,7.5 7.69373882,7.5 C8.81574801,7.5 9.85759805,7.67113923 10.8193202,8.01342282 C11.7810424,8.35570641 12.5624299,8.81543336 13.1635063,9.39261745 L10.9996422,11.8691275 C10.6657109,11.4798638 10.2249282,11.1610751 9.67728086,10.9127517 C9.12963352,10.6644283 8.5085306,10.5402685 7.81395349,10.5402685 C7.21287714,10.5402685 6.65855948,10.6510056 6.1509839,10.8724832 C5.64340831,11.0939608 5.2026256,11.4026826 4.82862254,11.7986577 C4.45461948,12.1946329 4.1641036,12.6644268 3.95706619,13.2080537 C3.75002878,13.7516806 3.64651163,14.3456344 3.64651163,14.9899329 C3.64651163,15.6476543 3.74001099,16.2516751 3.92701252,16.8020134 C4.11401405,17.3523517 4.39117288,17.8255014 4.75849732,18.2214765 C5.12582175,18.6174516 5.57996152,18.9261734 6.12093023,19.147651 C6.66189895,19.3691286 7.2796626,19.4798658 7.97423971,19.4798658 C8.37495728,19.4798658 8.75563326,19.4496647 9.11627907,19.3892617 C9.47692488,19.3288588 9.81085118,19.2315443 10.118068,19.0973154 L10.118068,16.5 L7.41323792,16.5 L7.41323792,13.7214765 L13.2636852,13.7214765 L13.2636852,21.2718121 Z M29.3123435,14.9697987 C29.3123435,16.218127 29.0819343,17.2952975 28.6211091,18.2013423 C28.1602839,19.1073871 27.5525381,19.8523461 26.7978533,20.4362416 C26.0431686,21.0201371 25.1916565,21.4496631 24.2432916,21.7248322 C23.2949267,22.0000014 22.3332189,22.1375839 21.3581395,22.1375839 L16.0686941,22.1375839 L16.0686941,7.88255034 L21.1978533,7.88255034 C22.1996472,7.88255034 23.1880691,7.99999883 24.1631485,8.23489933 C25.1382279,8.46979983 26.0064363,8.85905768 26.7677996,9.40268456 C27.529163,9.94631144 28.1435874,10.6744921 28.6110912,11.5872483 C29.0785951,12.5000046 29.3123435,13.6275101 29.3123435,14.9697987 Z M25.745975,14.9697987 C25.745975,14.1644255 25.6157437,13.4966469 25.3552773,12.966443 C25.0948109,12.436239 24.7475275,12.0134244 24.3134168,11.6979866 C23.8793061,11.3825488 23.3850952,11.1577188 22.8307692,11.0234899 C22.2764433,10.8892611 21.7054293,10.8221477 21.1177102,10.8221477 L19.4146691,10.8221477 L19.4146691,19.1577181 L21.0375671,19.1577181 C21.6520007,19.1577181 22.2430502,19.087249 22.8107335,18.9463087 C23.3784167,18.8053684 23.8793061,18.5738271 24.3134168,18.2516779 C24.7475275,17.9295286 25.0948109,17.5000027 25.3552773,16.9630872 C25.6157437,16.4261718 25.745975,15.7617489 25.745975,14.9697987 Z M42.3355993,12.2718121 C42.3355993,13.104031 42.1819932,13.8053663 41.8747764,14.3758389 C41.5675596,14.9463116 41.153491,15.4060385 40.6325581,15.7550336 C40.1116253,16.1040286 39.510558,16.3590596 38.8293381,16.5201342 C38.1481182,16.6812089 37.4401945,16.761745 36.7055456,16.761745 L35.0025045,16.761745 L35.0025045,22.1375839 L31.5763864,22.1375839 L31.5763864,7.88255034 L36.7856887,7.88255034 C37.5604094,7.88255034 38.2850294,7.95973077 38.9595707,8.11409396 C39.6341119,8.26845715 40.2218222,8.51677681 40.7227191,8.8590604 C41.2236161,9.20134399 41.6176491,9.65100393 41.9048301,10.2080537 C42.192011,10.7651035 42.3355993,11.453016 42.3355993,12.2718121 Z M38.9094812,12.2919463 C38.9094812,11.9563742 38.842696,11.6812091 38.7091234,11.466443 C38.5755509,11.2516768 38.3952307,11.0838932 38.1681574,10.9630872 C37.9410841,10.8422813 37.6839609,10.7617452 37.39678,10.7214765 C37.109599,10.6812079 36.8124046,10.6610738 36.5051878,10.6610738 L35.0025045,10.6610738 L35.0025045,14.0234899 L36.4450805,14.0234899 C36.7656546,14.0234899 37.0728667,13.9966446 37.3667263,13.942953 C37.6605858,13.8892615 37.9243876,13.7953027 38.1581395,13.6610738 C38.3918914,13.526845 38.5755509,13.3489944 38.7091234,13.1275168 C38.842696,12.9060392 38.9094812,12.6275185 38.9094812,12.2919463 Z M51.9928444,22.1375839 L48.9273703,16.4798658 L47.7652952,16.4798658 L47.7652952,22.1375839 L44.3992844,22.1375839 L44.3992844,7.88255034 L49.8089445,7.88255034 C50.4901644,7.88255034 51.1546777,7.95301943 51.8025045,8.09395973 C52.4503312,8.23490003 53.031363,8.47315268 53.5456172,8.80872483 C54.0598714,9.14429698 54.4706007,9.58724557 54.7778175,10.1375839 C55.0850343,10.6879222 55.2386404,11.3724791 55.2386404,12.1912752 C55.2386404,13.157723 54.9781779,13.9697954 54.4572451,14.6275168 C53.9363122,15.2852382 53.2150314,15.7550321 52.293381,16.0369128 L56,22.1375839 L51.9928444,22.1375839 Z M51.8525939,12.2516779 C51.8525939,11.9161057 51.7824694,11.6442963 51.6422182,11.4362416 C51.5019671,11.2281869 51.3216469,11.0671147 51.1012522,10.9530201 C50.8808576,10.8389256 50.6337521,10.7617452 50.3599284,10.7214765 C50.0861048,10.6812079 49.822303,10.6610738 49.5685152,10.6610738 L47.7452594,10.6610738 L47.7452594,13.9832215 L49.3681574,13.9832215 C49.6486597,13.9832215 49.9358363,13.9597318 50.2296959,13.9127517 C50.5235554,13.8657716 50.7906965,13.7818798 51.031127,13.6610738 C51.2715576,13.5402679 51.4685741,13.365773 51.6221825,13.1375839 C51.7757909,12.9093948 51.8525939,12.6140958 51.8525939,12.2516779 Z" id="GDPR" fill="#455A73"></path>
                </g>
            </g>
        </g>
    </g>
</svg>