<?xml version="1.0" encoding="UTF-8"?>
<svg width="253px" height="224px" viewBox="0 0 253 224" version="1.1" xmlns="http://www.w3.org/2000/svg" xmlns:xlink="http://www.w3.org/1999/xlink">
    <!-- Generator: Sketch 52.2 (67145) - http://www.bohemiancoding.com/sketch -->
    <title>Artboard</title>
    <desc>Created with Sketch.</desc>
    <g id="Artboard" stroke="none" stroke-width="1" fill="none" fill-rule="evenodd">
        <g id="Illustration">
            <rect id="Rectangle" fill-rule="nonzero" x="0" y="0" width="253" height="224"></rect>
            <path d="M120.844661,184.965323 L120.844661,132.089155 L132.839643,132.089155 L132.839643,184.965323 L143.797224,184.965323 C143.985456,190.451722 148.481289,194.845288 154.014623,194.845288 L164.251289,194.845288 L164.251289,205.432728 L89.4327179,205.432728 L89.4327179,194.845288 L99.6693845,194.845288 C105.202718,194.845288 109.698551,190.451722 109.881349,184.965323 L120.844661,184.965323 Z" id="Path" fill="#FDBF14"></path>
            <polygon id="Path" fill="#FFA813" points="120.844661 131.959893 118.754345 131.959893 118.754345 124.509685 134.929464 124.509685 134.929464 131.959893 132.839643 131.959893 132.839643 135.086226 120.844661 135.086226"></polygon>
            <polygon id="Fill-11" fill="#FDBF14" points="118.754345 131.959893 134.929464 131.959893 134.929464 127.625613 118.754345 127.625613"></polygon>
            <path d="M84.8424226,31.3341512 L84.8424226,29.685119 L168.835952,29.685119 L168.835952,31.3342006 L174.893124,31.3342006 C176.873761,31.3342006 178.543642,29.7186649 178.543642,27.8052185 L178.543642,24.2757423 C178.543642,19.9849387 182.037053,16.4939982 186.324892,16.4939982 L201.902708,16.4939982 C206.191041,16.4939982 209.683958,19.9849387 209.683958,24.2757423 L209.664196,48.6199387 C209.664196,76.7016456 189.260555,100.106204 162.495306,104.783132 C159.77744,116.355214 149.390334,124.970305 136.989593,124.970305 L116.694117,124.970305 C104.292089,124.970305 93.9041144,116.353425 91.1875682,104.779531 C64.4233264,100.102426 44.0200089,76.6984096 44.0200089,48.616925 L43.999753,24.2756929 C43.999753,19.9834071 47.4882232,16.4939488 51.781003,16.4939488 L67.353878,16.4939488 C71.6471518,16.4939488 75.135128,19.9834071 75.135128,24.2756929 L75.135128,27.805169 C75.135128,29.7186155 76.8094554,31.3341512 78.7905863,31.3341512 L84.8424226,31.3341512 Z M84.8424226,35.5686333 L78.7905863,35.5686333 C74.4380268,35.5686333 70.9006458,32.0851036 70.9006458,27.805169 L70.9006458,24.2756929 C70.9006458,22.3202524 69.3098125,20.728925 67.353878,20.728925 L51.781003,20.728925 C49.8250685,20.728925 48.2337411,22.3202524 48.2337411,24.2756929 L48.253503,48.616925 C48.253503,74.1288967 66.4464157,95.4700141 90.5416424,100.348014 C90.5105432,99.8251572 90.494772,99.2981717 90.494772,98.7675012 L90.494772,40.9790476 L84.8424226,40.9790476 L84.8424226,35.5686333 Z M168.835952,35.5686827 L168.835952,40.9790476 L163.188939,40.9790476 L163.188939,98.7675012 C163.188939,99.2996422 163.17308,99.8280778 163.141809,100.352361 C187.236919,95.4738141 205.429714,74.1309612 205.429714,48.6199387 L205.44997,24.2757423 C205.44997,22.3203018 203.859136,20.7289744 201.902708,20.7289744 L186.324892,20.7289744 C184.373898,20.7289744 182.778124,22.3203018 182.778124,24.2757423 L182.778124,27.8052185 C182.778124,32.085153 179.240249,35.5686827 174.893124,35.5686827 L168.835952,35.5686827 Z" id="Shape" fill="#FDBF14"></path>
            <polygon id="Fill-15-Copy" fill="#FFA813" points="127 56 133.489328 68.8380062 148 70.897548 137.495986 80.8921716 139.977987 95 127 88.3386594 114.021344 95 116.496655 80.8921716 106 70.897548 120.510672 68.8380062"></polygon>
            <polygon id="Fill-16" fill="#FFA813" points="90.4948214 45.6843571 163.188988 45.6843571 163.188988 40.2735476 90.4948214 40.2735476"></polygon>
            <polygon id="Fill-17" fill="#FFA813" points="89.43 205.609976 164.26 205.609976 164.26 197.609976 89.43 197.609976"></polygon>
        </g>
    </g>
</svg>