<?xml version="1.0" encoding="UTF-8"?>
<svg width="443px" height="353px" viewBox="0 0 443 353" version="1.1" xmlns="http://www.w3.org/2000/svg" xmlns:xlink="http://www.w3.org/1999/xlink">
    <!-- Generator: Sketch 52.2 (67145) - http://www.bohemiancoding.com/sketch -->
    <title>Artboard</title>
    <desc>Created with Sketch.</desc>
    <defs>
        <linearGradient x1="99.9997663%" y1="49.9999966%" x2="-0.00025573599%" y2="49.9999966%" id="linearGradient-1">
            <stop stop-color="#FDAF4B" offset="0%"></stop>
            <stop stop-color="#FFD817" offset="100%"></stop>
        </linearGradient>
    </defs>
    <g id="Artboard" stroke="none" stroke-width="1" fill="none" fill-rule="evenodd">
        <g id="Illustration">
            <path d="M15,305.5 C-11,326.5 34.5,342.577757 108,348 C181.5,353.422243 278.529135,353.422243 330.5,348 C382.478749,342.578208 409.368173,330.767932 420.5,326.5 C431.631827,322.232068 438.902127,291.5 326.5,280 C214.097873,268.5 41,284.5 15,305.5 Z" id="Fill-1" fill="#F1F6FD"></path>
            <g id="group" transform="translate(328.000000, 149.000000)">
                <path d="M55.0941,134.1416 C55.0941,134.1416 61.3951,111.6526 71.2941,104.0016 C81.1841,96.3516 88.3841,85.5616 101.4341,80.6016 C114.4751,75.6626 117.6241,66.6626 112.6841,63.5116 C107.7351,60.3626 91.5341,51.3626 71.7441,72.0616 C51.9451,92.7516 46.9941,108.9526 47.4451,128.3016 C47.8951,147.6416 54.1951,145.3916 55.0941,134.1416" id="Fill-1" fill="#3BB6D5"></path>
                <path d="M105.1341,65.8018 C105.1141,65.8118 100.1451,67.2818 94.0341,69.6018 C90.9751,70.7618 87.6241,72.1418 84.4641,73.6618 C81.2941,75.1818 78.3151,76.8318 75.9641,78.5918 C71.3341,82.0728 64.8741,88.5518 59.3841,96.5318 C53.9141,104.5218 49.4141,114.0218 48.9451,123.5918 L51.3441,123.7018 C51.7751,114.8318 56.0441,105.6528 61.3741,97.9028 C66.6841,90.1418 73.0441,83.7918 77.4141,80.5218 C79.5541,78.9118 82.4241,77.3018 85.5041,75.8318 C90.1241,73.6128 95.2141,71.6818 99.1341,70.3018 C101.1041,69.6128 102.7751,69.0728 103.9541,68.6928 C104.5441,68.5018 105.0141,68.3628 105.3341,68.2618 C105.6551,68.1618 105.8151,68.1128 105.8241,68.1128 L105.1341,65.8018" id="Fill-3" fill="#3096AF"></path>
                <path d="M49.6947,141.3418 C49.6947,141.3418 39.4947,112.5518 35.2947,103.5518 C31.0937,94.5518 31.7047,72.9618 38.2947,64.5618 C44.8947,56.1618 55.6947,43.5618 50.8947,24.9718 C46.0937,6.3718 48.4947,-5.0172 57.4947,2.1818 C66.4947,9.3718 82.2947,25.2418 82.6837,50.7718 C82.9847,70.2618 77.2347,81.6718 66.4947,95.7518 C57.7947,107.1528 49.0937,128.1528 49.6947,141.3418" id="Fill-5" fill="#F8C44F"></path>
                <path d="M47.7347,134.2217 C47.7347,134.2217 47.6947,134.0327 47.6247,133.6617 C47.1737,131.0917 45.3437,120.0117 45.3437,109.6527 C45.3437,106.6927 45.4947,103.7917 45.8647,101.1817 C46.2247,98.5727 46.8147,96.2517 47.6447,94.4617 C50.3037,88.6817 54.8837,80.3227 58.9337,71.6217 C60.9547,67.2617 62.8537,62.8117 64.3147,58.5217 C65.7747,54.2327 66.8037,50.1017 67.0937,46.3627 C67.1647,45.3117 67.2047,44.2617 67.2047,43.2327 C67.2047,34.5727 64.6447,26.4217 62.1037,20.4217 C59.5647,14.4217 57.0247,10.5617 56.9947,10.5117 L54.9847,11.8417 L55.0047,11.8717 C55.2747,12.2827 57.7347,16.1527 60.1147,21.9117 C62.5047,27.6617 64.8037,35.3117 64.7947,43.2327 C64.7947,44.2117 64.7637,45.1927 64.6947,46.1817 C64.4337,49.6127 63.4547,53.5727 62.0347,57.7427 C59.9047,64.0017 56.7747,70.7217 53.6737,76.9827 C50.5747,83.2327 47.5047,89.0117 45.4547,93.4517 C44.4847,95.5617 43.8647,98.0817 43.4747,100.8517 C43.0937,103.6127 42.9447,106.6127 42.9447,109.6527 C42.9447,121.8017 45.3537,134.6317 45.3647,134.6717 L47.7347,134.2217" id="Fill-8" fill="#F4DA80"></path>
                <path d="M9.6546,98.6016 C-2.0454,96.3516 -2.9464,82.8516 6.0536,80.1626 C15.0536,77.4616 29.9046,77.9126 37.0936,87.3626 C45.4446,98.3116 48.7946,117.9526 46.0936,131.9026 C43.3946,145.8416 46.0936,126.4926 40.2446,117.0516 C34.3946,107.6016 19.3036,100.4616 9.6546,98.6016" id="Fill-10" fill="#194866"></path>
                <path d="M4.4242,88.542 L4.5142,88.521 C4.9342,88.452 6.9342,88.132 9.7942,88.132 C12.5842,88.132 16.2042,88.442 19.9642,89.572 C23.7352,90.702 27.6452,92.662 31.0742,95.952 C40.6242,105.122 44.7642,116.542 46.5542,128.432 L48.3342,128.162 C46.5252,116.052 42.2442,104.172 32.3242,94.652 C28.6542,91.132 24.4642,89.042 20.4852,87.852 C16.5042,86.652 12.7252,86.332 9.7942,86.332 C6.3742,86.332 4.1242,86.762 4.0842,86.771 L4.4242,88.542" id="Fill-13" fill="#161711"></path>
                <polygon id="Fill-15" fill="#B0BFDE" points="69.0443 168.6319 36.6453 168.6319 31.2443 116.4519 74.4343 116.4519"></polygon>
                <polygon id="Fill-17" fill="#CFD9E8" points="34.4447 116.4522 37.5247 157.9922 60.7637 157.9922 63.8437 116.4522"></polygon>
            </g>
            <g id="group" transform="translate(56.687817, 249.500000) scale(-1, 1) translate(-56.687817, -249.500000) translate(13.187817, 181.000000)">
                <path d="M48.2749056,108.980231 C48.2749056,108.980231 43.1906061,90.8225157 35.2028802,84.644998 C27.213068,78.4737391 21.4020426,69.7599827 10.8704284,65.7640335 C0.339509645,61.7701706 -2.20298782,54.5070843 1.79087513,51.9645868 C5.7854335,49.4227848 18.8588497,42.159003 34.8377787,58.8646579 C50.8187939,75.5696173 54.811266,88.6430335 54.4496416,104.260338 C54.085931,119.87347 49.0023269,118.058394 48.2749056,108.980231" id="Fill-1" fill="#3DC7C9"></path>
                <path d="M7.60336091,54.7495117 C7.60336091,54.7495117 23.580899,59.4694051 30.8446807,64.9174152 C38.1084624,70.3647299 51.5441985,85.6183239 52.2695335,100.506121" id="Stroke-3" stroke="#33A8B5" stroke-width="2.795"></path>
                <path d="M51.1489543,0.695431472 C50.1085888,0.697517766 48.8359492,1.2573401 47.3379898,2.45626396 C40.0742081,8.26589848 27.3186041,21.0785279 27.0028782,41.6765127 C26.7594772,57.4113452 31.4000914,66.6230305 40.0742081,77.9919442 C47.0966751,87.1911117 54.1170558,104.138081 53.6344264,114.78931 C53.6344264,114.78931 61.8648579,91.5500761 65.2557817,84.2869898 C68.642533,77.0211218 68.1585127,59.5894365 62.8328985,52.8103706 C57.5065888,46.0340863 48.7900508,35.8640964 52.6649949,20.8539036 C55.7367157,8.95159391 55.1546396,0.703081218 51.1600812,0.695431472 L51.1489543,0.695431472 Z" id="Fill-6" fill="url(#linearGradient-1)" transform="translate(47.198372, 57.742371) scale(-1, 1) translate(-47.198372, -57.742371) "></path>
                <path d="M57.1291086,109.402984 C57.3099208,108.441203 61.494332,85.7423193 57.0574792,76.1307609 C56.0456264,73.9415426 54.694403,71.284299 53.2625096,68.4719741 C48.5871239,59.2853244 42.1828954,46.7014919 41.527799,37.972436 C40.4756112,23.9372381 49.2714284,10.3860604 49.3611391,10.2518421 L47.738002,9.18365939 C47.3603827,9.75878122 38.488068,23.4281822 39.588936,38.1184766 C40.2746315,47.2348878 46.5154335,59.4995173 51.5301898,69.3530858 C52.9530426,72.1501112 54.2959208,74.7892736 55.2924741,76.9458066 C59.4727127,85.9996289 55.2618751,108.814649 55.2201492,109.044142 L57.1291086,109.402984 Z" id="Fill-9" fill="#FFD917" transform="translate(49.292025, 59.293322) scale(-1, 1) translate(-49.292025, -59.293322) "></path>
                <path d="M78.9538391,80.2923619 C88.3950168,78.4738086 89.1231335,67.5777883 81.8600472,65.4017832 C74.5962655,63.222301 62.6125904,63.5874025 56.801565,71.2121132 C50.0642249,80.0524381 47.3589964,95.9061893 49.5384787,107.165225 C51.7186563,118.420783 49.5384787,102.805565 54.2590675,95.1794635 C58.9831335,87.5526665 71.165702,81.7889305 78.9538391,80.2923619" id="Fill-11" fill="#194866"></path>
                <path d="M83.3118299,71.4548188 C83.3118299,71.4548188 70.2398046,68.9123213 61.1609467,77.6274685 C53.3004848,85.1729 49.9012157,94.5758289 48.4498503,104.260408" id="Stroke-14" stroke="#161711" stroke-width="2.089"></path>
                <polygon id="Fill-16" fill="#B0BFDE" points="37.0172609 136.821274 63.1647888 136.821274 67.5230579 94.6962081 32.6603827 94.6962081"></polygon>
            </g>
            <g id="group" transform="translate(54.000000, 124.000000)">
                <path d="M319.297784,8.72517986 C319.297784,3.9142446 315.384115,0 310.566849,0 L9.35821583,0 C4.54670504,0 0.62152518,3.9142446 0.62152518,8.72517986 L0.62152518,184.215827 C0.62152518,189.738675 5.09867768,194.215827 10.6215252,194.215827 L309.297784,194.215827 C314.820632,194.215827 319.297784,189.738675 319.297784,184.215827 L319.297784,8.72517986 Z" id="Fill-1" fill="#2F4A60"></path>
                <polygon id="Fill-11" fill="#E4EFFF" points="15.4302158 177.73295 304.489209 177.73295 304.489209 14.9640288 15.4302158 14.9640288"></polygon>
                <path d="M34.3368633,43.3727194 L54.8490935,43.3727194" id="Fill-13" fill="#D8E5ED"></path>
                <polygon id="Fill-14" fill="#B5D1DE" points="34.3366906 45.0532374 54.8489209 45.0532374 54.8489209 41.6920863 34.3366906 41.6920863"></polygon>
                <polygon id="Fill-15" fill="#B5D1DE" points="27.0273381 76.748777 45.1741007 76.748777 45.1741007 73.3876259 27.0273381 73.3876259"></polygon>
                <path d="M34.3368633,53.5368633 L54.8490935,53.5368633" id="Fill-16" fill="#D8E5ED"></path>
                <polygon id="Fill-17" fill="#B5D1DE" points="34.3366906 55.2115108 54.8489209 55.2115108 54.8489209 51.8561151 34.3366906 51.8561151"></polygon>
                <path d="M30.3943597,53.5368633 L27.0274532,53.5368633" id="Fill-18" fill="#D8E5ED"></path>
                <polygon id="Fill-19" fill="#B5D1DE" points="27.0273381 55.2115108 30.3942446 55.2115108 30.3942446 51.8561151 27.0273381 51.8561151"></polygon>
                <path d="M34.3368633,61.7613237 L54.8490935,61.7613237" id="Fill-20" fill="#D8E5ED"></path>
                <polygon id="Fill-21" fill="#B5D1DE" points="34.3366906 63.4417266 54.8489209 63.4417266 54.8489209 60.0805755 34.3366906 60.0805755"></polygon>
                <path d="M30.3943597,61.7613237 L27.0274532,61.7613237" id="Fill-22" fill="#D8E5ED"></path>
                <polygon id="Fill-23" fill="#B5D1DE" points="27.0273381 63.4417266 30.3942446 63.4417266 30.3942446 60.0805755 27.0273381 60.0805755"></polygon>
                <path d="M34.3368633,83.7813525 L54.8490935,83.7813525" id="Fill-24" fill="#D8E5ED"></path>
                <polygon id="Fill-25" fill="#B5D1DE" points="34.3366906 85.4561151 54.8489209 85.4561151 54.8489209 82.1007194 34.3366906 82.1007194"></polygon>
                <path d="M30.3943597,83.7813525 L27.0274532,83.7813525" id="Fill-26" fill="#D8E5ED"></path>
                <polygon id="Fill-27" fill="#B5D1DE" points="27.0273381 85.4561151 30.3942446 85.4561151 30.3942446 82.1007194 27.0273381 82.1007194"></polygon>
                <polygon id="Fill-28" fill="#B5D1DE" points="27.0273381 98.5266187 45.1741007 98.5266187 45.1741007 95.1654676 27.0273381 95.1654676"></polygon>
                <polygon id="Fill-29" fill="#B5D1DE" points="27.0273381 140.143885 45.1741007 140.143885 45.1741007 136.782734 27.0273381 136.782734"></polygon>
                <path d="M34.3368633,105.554072 L54.8490935,105.554072" id="Fill-30" fill="#D8E5ED"></path>
                <polygon id="Fill-31" fill="#B5D1DE" points="34.3366906 107.234532 54.8489209 107.234532 54.8489209 103.873381 34.3366906 103.873381"></polygon>
                <path d="M30.3943597,105.554072 L27.0274532,105.554072" id="Fill-32" fill="#D8E5ED"></path>
                <polygon id="Fill-33" fill="#B5D1DE" points="27.0273381 107.234532 30.3942446 107.234532 30.3942446 103.873381 27.0273381 103.873381"></polygon>
                <path d="M34.3368633,112.811799 L54.8490935,112.811799" id="Fill-34" fill="#D8E5ED"></path>
                <polygon id="Fill-35" fill="#B5D1DE" points="34.3366906 114.492086 54.8489209 114.492086 54.8489209 111.136691 34.3366906 111.136691"></polygon>
                <path d="M30.3943597,112.811799 L27.0274532,112.811799" id="Fill-36" fill="#D8E5ED"></path>
                <polygon id="Fill-37" fill="#B5D1DE" points="27.0273381 114.492086 30.3942446 114.492086 30.3942446 111.136691 27.0273381 111.136691"></polygon>
                <path d="M34.3368633,120.075165 L54.8490935,120.075165" id="Fill-38" fill="#D8E5ED"></path>
                <polygon id="Fill-39" fill="#B5D1DE" points="34.3366906 121.755971 54.8489209 121.755971 54.8489209 118.39482 34.3366906 118.39482"></polygon>
                <path d="M30.3943597,120.075165 L27.0274532,120.075165" id="Fill-40" fill="#D8E5ED"></path>
                <polygon id="Fill-41" fill="#B5D1DE" points="27.0273381 121.755971 30.3942446 121.755971 30.3942446 118.39482 27.0273381 118.39482"></polygon>
                <path d="M34.3368633,127.332374 L54.8490935,127.332374" id="Fill-42" fill="#D8E5ED"></path>
                <polygon id="Fill-43" fill="#B5D1DE" points="34.3366906 129.01295 54.8489209 129.01295 54.8489209 125.651799 34.3366906 125.651799"></polygon>
                <path d="M30.3943597,127.332374 L27.0274532,127.332374" id="Fill-44" fill="#D8E5ED"></path>
                <polygon id="Fill-45" fill="#B5D1DE" points="27.0273381 129.01295 30.3942446 129.01295 30.3942446 125.651799 27.0273381 125.651799"></polygon>
                <polygon id="Fill-46" fill="#B5D1DE" points="15.4302158 31.1084892 304.489209 31.1084892 304.489209 14.9640288 15.4302158 14.9640288"></polygon>
                <polygon id="Fill-47" fill="#FFFFFF" points="64.5467626 102.969784 235.528058 102.969784 235.528058 34.5617266 64.5467626 34.5617266"></polygon>
                <polygon id="Fill-48" fill="#FFFFFF" points="238.273381 113.617266 289.726619 113.617266 289.726619 34.5617266 238.273381 34.5617266"></polygon>
                <polygon id="Fill-49" fill="#FFFFFF" points="64.5467626 174.831655 235.528058 174.831655 235.528058 106.423022 64.5467626 106.423022"></polygon>
                <polygon id="Fill-50" fill="#D8E5ED" points="64.5467626 177.249496 235.528058 177.249496 235.528058 158.198561 64.5467626 158.198561"></polygon>
                <polygon id="Fill-51" fill="#D8E5ED" points="54.6302158 26.9128058 189.070504 26.9128058 189.070504 19.1597122 54.6302158 19.1597122"></polygon>
                <polygon id="Fill-52" fill="#FFFFFF" points="40.9956835 26.9128058 49.2834532 26.9128058 49.2834532 19.1597122 40.9956835 19.1597122"></polygon>
                <path d="M267.74682,26.3308201 L267.74682,25.8767194 C267.74682,24.3688058 266.526676,23.1486619 265.018763,23.1486619 L262.290705,23.1486619 C260.782791,23.1486619 259.562647,24.3688058 259.562647,25.8767194 L259.562647,26.3308201 L267.74682,26.3308201" id="Fill-53" fill="#FFFFFF"></path>
                <path d="M265.473324,19.9655827 C265.473324,20.9670216 264.661813,21.7842878 263.654619,21.7842878 C262.647424,21.7842878 261.835914,20.9670216 261.835914,19.9655827 C261.835914,18.9583885 262.647424,18.1468777 263.654619,18.1468777 C264.661813,18.1468777 265.473324,18.9583885 265.473324,19.9655827" id="Fill-54" fill="#FFFFFF"></path>
                <path d="M269.858993,26.1296115 C269.858993,27.4648633 268.771223,28.5526331 267.430216,28.5526331 C266.089209,28.5526331 265.007194,27.4648633 265.007194,26.1296115 C265.007194,24.7886043 266.089209,23.7008345 267.430216,23.7008345 C268.771223,23.7008345 269.858993,24.7886043 269.858993,26.1296115" id="Fill-55" fill="#D8E5ED"></path>
                <path d="M283.671942,18.6188777 L276.264748,18.6188777 C275.879137,18.6188777 275.568345,18.9296691 275.568345,19.3095252 L275.568345,25.0994532 C275.568345,25.4850647 275.879137,25.7958561 276.264748,25.7958561 L276.72518,25.7958561 L276.72518,27.4131223 L278.348201,25.7958561 L283.671942,25.7958561 C284.057554,25.7958561 284.368345,25.4850647 284.368345,25.0994532 L284.368345,19.3095252 C284.368345,18.9296691 284.057554,18.6188777 283.671942,18.6188777" id="Fill-56" fill="#FFFFFF"></path>
                <path d="M298.872058,21.5078561 L298.705151,21.5941871 L297.830331,20.7193669 L297.582849,20.6215252 L296.71954,20.6215252 L296.282129,19.9654101 L297.01882,19.2287194 C297.928173,19.6776403 298.61882,20.5069928 298.872058,21.5078561" id="Fill-57" fill="#FFFFFF"></path>
                <path d="M292.989871,19.919482 L293.835914,20.2072518 L294.008576,20.5468201 L293.525122,21.0302734 L292.880518,21.3583309 L292.84023,21.9626475 L293.686273,22.5214964 L293.41577,23.614446 L292.730878,24.5237986 C292.270446,23.9252374 291.988432,23.1827914 291.988432,22.3712806 C291.988432,21.4164604 292.368288,20.5531511 292.989871,19.919482" id="Fill-58" fill="#FFFFFF"></path>
                <path d="M295.482014,25.8648633 C294.62446,25.8648633 293.835971,25.5540719 293.225899,25.0303309 L294.014388,23.9770935 L294.071942,23.8504748 L294.423022,22.4519137 L294.279137,22.0778129 L293.732374,21.7094676 L293.893525,21.6346475 L293.985612,21.5655827 L294.682014,20.8691799 L294.751079,20.4605468 L294.4,19.7641439 L294.198561,19.5857266 L293.640288,19.4021295 C294.17554,19.067741 294.808633,18.8720576 295.482014,18.8720576 C295.764029,18.8720576 296.034532,18.9065899 296.293525,18.9704748 L295.585612,19.6720576 L295.545324,20.115223 L295.648921,20.2706187 L295.136691,20.2706187 L295.136691,21.3181007 L295.833094,21.3181007 L295.833094,20.5532086 L296.241727,21.162705 L296.535252,21.3181007 L297.438849,21.3181007 L298.388489,22.267741 L298.791367,22.3310504 L298.97554,22.238964 L298.981295,22.3713381 C298.981295,24.2993957 297.415827,25.8648633 295.482014,25.8648633 M295.482014,18.1698993 C293.168345,18.1698993 291.286331,20.0519137 291.286331,22.3713381 C291.286331,24.6850072 293.168345,26.5670216 295.482014,26.5670216 C297.801439,26.5670216 299.683453,24.6850072 299.683453,22.3713381 C299.683453,20.0519137 297.801439,18.1698993 295.482014,18.1698993" id="Fill-59" fill="#FFFFFF"></path>
                <polygon id="Fill-60" fill="#FFFFFF" points="296.615942 22.0204317 295.99436 21.7038849 295.585727 21.7723741 295.240403 22.1182734 295.136806 22.3709353 295.136806 23.7700719 295.240403 24.017554 296.287885 25.065036 296.846158 24.9729496 297.548317 23.5743885 297.582849 23.4189928 297.582849 22.3709353 297.23177 22.0204317"></polygon>
                <polygon id="Fill-61" fill="#FFFFFF" points="296.886331 23.3384173 296.43741 24.2247482 295.833094 23.6261871 295.833094 22.5148201 295.902158 22.4457554 296.379856 22.6817266 296.535252 22.7168345 296.886331 22.7168345"></polygon>
                <path d="M286.653353,26.1296115 C286.653353,27.4648633 285.565583,28.5526331 284.224576,28.5526331 C282.889324,28.5526331 281.801554,27.4648633 281.801554,26.1296115 C281.801554,24.7886043 282.889324,23.7008345 284.224576,23.7008345 C285.565583,23.7008345 286.653353,24.7886043 286.653353,26.1296115" id="Fill-62" fill="#D8E5ED"></path>
                <path d="M32.0978993,43.3727194 C32.0978993,45.243223 30.5842302,46.7568921 28.7137266,46.7568921 C26.843223,46.7568921 25.3237986,45.243223 25.3237986,43.3727194 C25.3237986,41.5022158 26.843223,39.9827914 28.7137266,39.9827914 C30.5842302,39.9827914 32.0978993,41.5022158 32.0978993,43.3727194" id="Fill-63" fill="#B5D1DE"></path>
                <polygon id="Fill-64" fill="#B5D1DE" points="258.336691 52.7942446 272.851799 52.7942446 272.851799 49.4330935 258.336691 49.4330935"></polygon>
                <polygon id="Fill-65" fill="#B5D1DE" points="242.365468 41.9107914 256.886331 41.9107914 256.886331 38.5496403 242.365468 38.5496403"></polygon>
                <polygon id="Fill-66" fill="#D8E5ED" points="242.365468 108.932374 256.886331 108.932374 256.886331 105.576978 242.365468 105.576978"></polygon>
                <polygon id="Fill-67" fill="#D8E5ED" points="272.126619 41.9107914 277.08777 41.9107914 277.08777 38.5496403 272.126619 38.5496403"></polygon>
                <polygon id="Fill-68" fill="#D8E5ED" points="279.752518 41.9107914 284.713669 41.9107914 284.713669 38.5496403 279.752518 38.5496403"></polygon>
                <polygon id="Fill-69" fill="#FFFFFF" points="238.273381 173.623597 289.726619 173.623597 289.726619 116.828777 238.273381 116.828777"></polygon>
                <polygon id="Fill-70" fill="#B5D1DE" points="238.273381 173.864748 289.726619 173.864748 289.726619 148.523741 238.273381 148.523741"></polygon>
                <polygon id="Fill-71" fill="#B5D1DE" points="242.365468 124.178993 256.886331 124.178993 256.886331 120.817842 242.365468 120.817842"></polygon>
                <polygon id="Fill-72" fill="#D8E5ED" points="272.126619 124.178993 277.08777 124.178993 277.08777 120.817842 272.126619 120.817842"></polygon>
                <polygon id="Fill-73" fill="#D8E5ED" points="279.752518 124.178993 284.713669 124.178993 284.713669 120.817842 279.752518 120.817842"></polygon>
                <polygon id="Fill-74" fill="#D8E5ED" points="258.336691 59.0848921 283.982734 59.0848921 283.982734 55.723741 258.336691 55.723741"></polygon>
                <path d="M254.342446,54.0202014 C254.342446,57.2892662 251.689209,59.948259 248.420144,59.948259 C245.145324,59.948259 242.486331,57.2892662 242.486331,54.0202014 C242.486331,50.7459568 245.145324,48.0921439 248.420144,48.0921439 C251.689209,48.0921439 254.342446,50.7459568 254.342446,54.0202014" id="Fill-75" fill="#D8E5ED"></path>
                <polygon id="Fill-76" fill="#B5D1DE" points="258.336691 72.1496403 272.851799 72.1496403 272.851799 68.7942446 258.336691 68.7942446"></polygon>
                <polygon id="Fill-77" fill="#D8E5ED" points="258.336691 78.4402878 283.982734 78.4402878 283.982734 75.0854676 258.336691 75.0854676"></polygon>
                <path d="M254.342446,73.3755396 C254.342446,76.6503597 251.689209,79.3035971 248.420144,79.3035971 C245.145324,79.3035971 242.486331,76.6503597 242.486331,73.3755396 C242.486331,70.101295 245.145324,67.447482 248.420144,67.447482 C251.689209,67.447482 254.342446,70.101295 254.342446,73.3755396" id="Fill-78" fill="#D8E5ED"></path>
                <polygon id="Fill-79" fill="#B5D1DE" points="258.336691 91.5107914 272.851799 91.5107914 272.851799 88.1496403 258.336691 88.1496403"></polygon>
                <polygon id="Fill-80" fill="#D8E5ED" points="258.336691 97.8020144 283.982734 97.8020144 283.982734 94.4408633 258.336691 94.4408633"></polygon>
                <polygon id="Fill-81" fill="#B5D1DE" points="258.336691 136.51223 272.851799 136.51223 272.851799 133.151079 258.336691 133.151079"></polygon>
                <polygon id="Fill-82" fill="#D8E5ED" points="258.336691 142.802878 283.982734 142.802878 283.982734 139.441727 258.336691 139.441727"></polygon>
                <path d="M254.342446,92.7308777 C254.342446,96.0056978 251.689209,98.6595108 248.420144,98.6595108 C245.145324,98.6595108 242.486331,96.0056978 242.486331,92.7308777 C242.486331,89.4566331 245.145324,86.8028201 248.420144,86.8028201 C251.689209,86.8028201 254.342446,89.4566331 254.342446,92.7308777" id="Fill-83" fill="#D8E5ED"></path>
                <polygon id="Fill-84" fill="#D8E5ED" points="77.4791367 97.4503597 93.2892086 97.4503597 93.2892086 94.0892086 77.4791367 94.0892086"></polygon>
                <polygon id="Fill-85" fill="#D8E5ED" points="68.9496403 97.4503597 73.4791367 97.4503597 73.4791367 94.0892086 68.9496403 94.0892086"></polygon>
                <polygon id="Fill-86" fill="#D8E5ED" points="108.564029 97.4503597 124.374101 97.4503597 124.374101 94.0892086 108.564029 94.0892086"></polygon>
                <polygon id="Fill-87" fill="#D8E5ED" points="100.034532 97.4503597 104.564029 97.4503597 104.564029 94.0892086 100.034532 94.0892086"></polygon>
                <polygon id="Fill-88" fill="#D8E5ED" points="140.483453 97.4503597 156.293525 97.4503597 156.293525 94.0892086 140.483453 94.0892086"></polygon>
                <polygon id="Fill-89" fill="#D8E5ED" points="131.953957 97.4503597 136.483453 97.4503597 136.483453 94.0892086 131.953957 94.0892086"></polygon>
                <polygon id="Fill-90" fill="#D8E5ED" points="69.0820144 89.0992806 230.371223 89.0992806 230.371223 38.5496403 69.0820144 38.5496403"></polygon>
                <path d="M88.2936978,114.808748 L159.390101,114.808748" id="Fill-91" fill="#D8E5ED"></path>
                <polygon id="Fill-92" fill="#B5D1DE" points="88.2935252 116.489209 159.389928 116.489209 159.389928 113.128058 88.2935252 113.128058"></polygon>
                <polygon id="Fill-93" fill="#D8E5ED" points="69.0820144 136.258993 228.132374 136.258993 228.132374 132.897842 69.0820144 132.897842"></polygon>
                <polygon id="Fill-94" fill="#D8E5ED" points="69.0820144 143.257554 228.132374 143.257554 228.132374 139.896403 69.0820144 139.896403"></polygon>
                <polygon id="Fill-95" fill="#D8E5ED" points="69.0820144 150.256115 219.729496 150.256115 219.729496 146.894964 69.0820144 146.894964"></polygon>
                <path d="M88.2936978,122.089554 L139.821755,122.089554" id="Fill-96" fill="#D8E5ED"></path>
                <polygon id="Fill-97" fill="#B5D1DE" points="88.2935252 123.77036 139.821583 123.77036 139.821583 120.409209 88.2935252 120.409209"></polygon>
                <path d="M69.0819568,118.07764 C69.0819568,121.818647 72.1150504,124.852317 75.8560576,124.852317 C79.5970647,124.852317 82.6301583,121.818647 82.6301583,118.07764 C82.6301583,114.336633 79.5970647,111.30354 75.8560576,111.30354 C72.1150504,111.30354 69.0819568,114.336633 69.0819568,118.07764" id="Fill-98" fill="#D8E5ED"></path>
                <polygon id="Fill-99" fill="#D8E5ED" points="242.607194 142.802878 254.221583 142.802878 254.221583 131.188489 242.607194 131.188489"></polygon>
            </g>
            <g id="group">
                <polygon id="Fill-1" fill="#E5E8EC" transform="translate(231.907547, 23.686062) rotate(15.000000) translate(-231.907547, -23.686062) " points="260.143047 7.45006164 203.672047 39.9220616 217.178047 39.4500616"></polygon>
                <polygon id="Fill-2" fill="#CDD5D7" transform="translate(237.082256, 30.465374) rotate(15.000000) translate(-237.082256, -30.465374) " points="215.599756 41.0203743 221.463756 51.9103743 258.564756 9.02037428"></polygon>
                <polygon id="Fill-3" fill="#E67A61" transform="translate(214.387105, 30.676843) rotate(15.000000) translate(-214.387105, -30.676843) " points="201.411105 35.5698427 215.392105 34.7188427 227.363105 25.7838427"></polygon>
                <polygon id="Fill-4" fill="#FEC12F" transform="translate(213.951834, 30.812612) rotate(15.000000) translate(-213.951834, -30.812612) " points="201.215334 35.5176124 214.721334 35.0456124 226.688334 26.1076124"></polygon>
                <polygon id="Fill-5" fill="#FFAB01" transform="translate(220.470175, 37.728124) rotate(15.000000) translate(-220.470175, -37.728124) " points="219.018175 47.8581236 227.787175 37.1821236 225.746175 27.5981236 213.153175 36.9681236"></polygon>
                <polygon id="Fill-6" fill="#B7BEC0" transform="translate(239.914350, 31.224232) rotate(15.000000) translate(-239.914350, -31.224232) " points="225.51885 42.8242317 221.36385 52.6692317 258.46485 9.77923172"></polygon>
                <polygon id="Fill-7" fill="#E5E8EC" transform="translate(241.738982, 32.441457) rotate(15.000000) translate(-241.738982, -32.441457) " points="225.265982 43.3379571 245.983982 54.5899571 258.211982 10.2929571"></polygon>
                <polygon id="Fill-8" fill="#E67A61" transform="translate(232.734574, 42.994739) rotate(15.000000) translate(-232.734574, -42.994739) " points="222.523574 41.0397392 242.945574 52.6187392 230.277574 33.3707392"></polygon>
                <polygon id="Fill-9" fill="#FEC12F" transform="translate(232.549048, 43.114916) rotate(15.000000) translate(-232.549048, -43.114916) " points="222.190048 41.3234165 242.908048 52.5754165 229.943048 33.6544165"></polygon>
                <path d="M212,49.5 C74,131.5 3.66666667,194.5 1,238.5 C0.440184719,247.736952 5.31578186,253.732244 14.3986955,257.193127 M373.5,198 C394.94499,196.542573 409.389146,201.045609 416.909184,209.189583 M421.775115,234.27555 C413.508782,264.452214 364.984486,305.196493 277.292073,323.556619" id="Path-3" stroke="#D8B666" stroke-width="2" stroke-linecap="round" stroke-dasharray="6,6" fill-rule="nonzero"></path>
            </g>
            <g id="group" transform="translate(188.000000, 67.000000)">
                <polygon id="Fill-40" fill="#E9D6B8" points="23.3724471 92.888051 26.2681333 93.9025608 38.1567608 89.9872667 33.507349 81.627502 31.9524471 84.0903647 27.7975451 83.9221294 22.5771529 91.2235412"></polygon>
                <path d="M36.4847059,50.5484275 L12.3301961,28.4606627 C12.3301961,28.4606627 10.7243137,30.4014863 11.3309804,32.1766235 C12.9878431,36.9805059 18.9219608,46.6234471 22.6843137,50.6942314 C27.8282353,56.2577216 34.027451,60.7139176 34.027451,60.7139176 L36.4847059,50.5484275" id="Fill-42" fill="#E9D6B8"></path>
                <path d="M12.2996078,34.4171608 L9.25098039,31.8237882 C9.25098039,31.8237882 7.74196078,30.6599059 6.4827451,28.7216314 C5.22862745,26.7818275 5.94235294,24.8996314 7.56862745,23.3503373 C9.2,21.8010431 10.4235294,21.6256706 10.4235294,21.6256706 C10.4235294,21.6256706 13.0490196,22.7905725 12.7176471,25.1392392 C12.3760784,27.4843373 14.7517647,32.6710824 13.8545098,33.0457882 C12.9521569,33.4174353 12.2996078,34.4171608 12.2996078,34.4171608" id="Fill-44" fill="#E9D6B8"></path>
                <polygon id="Fill-46" fill="#E9D6B8" points="11.5500941 22.092498 8.51676078 18.8205765 5.5548 15.9039882 5.1775451 16.7589294 6.99244706 19.1188118 7.95597647 24.0567725 9.15401569 23.3996353"></polygon>
                <polygon id="Fill-48" fill="#E9D6B8" points="5.94750196 20.3315843 2.68475686 18.6257804 2.08828627 19.3435843 5.00436471 21.6086431 7.12005098 24.9279765 9.15416863 23.4000941"></polygon>
                <polygon id="Fill-50" fill="#E9D6B8" points="1.47647059 20.8217098 4.16313725 22.0151608 6.0545098 22.5647294 7.3545098 24.3021412 6.14117647 26.0303765 4.79529412 24.1114745 1.52745098 21.9386902"></polygon>
                <polygon id="Fill-52" fill="#E9D6B8" points="0.885047059 23.7070471 6.01367451 25.0208118 6.85994902 26.3162235 6.09524314 27.5463804 4.0101451 26.1056745 1.24700784 24.5517922"></polygon>
                <path d="M15.3686275,34.351702 C13.7066667,32.664251 14.0737255,30.1575451 14.0737255,30.1575451 C14.0737255,30.1575451 14.8282353,23.8859373 13.9105882,22.8510353 C12.9878431,21.8161333 12.4117647,19.1386431 12.4117647,19.1386431 C12.4117647,19.1386431 11.6266667,18.1384078 11.2901961,20.6762118 C11.0760784,22.3305255 11.3870588,23.8166039 11.3870588,23.8166039 C11.3870588,23.8166039 9.6945098,27.2368784 9.82196078,28.3467216 C10.0819608,30.6347216 14.1960784,34.6535059 14.1960784,34.6535059 C14.1960784,34.6535059 15.5827451,34.567349 15.3686275,34.351702" id="Fill-54" fill="#E9D6B8"></path>
                <path d="M65.3854392,44.2594863 L38.5289686,49.2224275 L37.4991647,50.9710549 L35.9391647,49.6939961 L32.5387725,59.9899961 L40.272498,65.8053294 L76.8254392,58.3621922 C76.8254392,58.3621922 84.8140667,54.6171725 87.5262235,44.1646627 C89.4940667,36.5894863 67.6132824,43.9423882 65.3854392,44.2594863" id="Fill-56" fill="#E8BB46"></path>
                <path d="M38.4016706,61.4698549 C38.4016706,61.4698549 38.0142196,54.0669922 37.9479451,50.2047176 L37.4988078,50.9709529 L35.9393176,49.6928745 L34.7922588,53.2655804 L33.9204941,58.573149 L35.852651,59.6901294 L36.4792,58.1918157 L38.4016706,61.4698549" id="Fill-58" fill="#F4DA80"></path>
                <path d="M78.3294118,36.9564431 C78.2580392,40.3711098 79.7721569,43.5013059 81.6686275,43.8454235 C83.4835294,44.0381294 85.2984314,44.2282863 87.1184314,44.4209922 C89.0556863,44.4806392 91.1866667,41.7338157 91.8239216,38.3787961 C92.8588235,32.8377373 93.8937255,27.297698 94.9337255,21.7561294 C95.5811765,18.4357765 94.9847059,11.5692275 92.2929412,9.2751098 C89.8305882,7.23079608 86.7819608,6.9091098 83.9423529,8.39416863 C80.8376471,10.078051 78.8137255,16.6672667 78.7576471,20.0477765 C78.614902,25.6795804 78.4721569,31.3190314 78.3294118,36.9564431" id="Fill-60" fill="#E2C59C"></path>
                <path d="M62.9997098,86.9264549 L32.7275529,87.8216706 C32.7275529,87.8216706 55.1589255,101.325867 63.3055922,94.5164157 C71.4573569,87.7023765 62.9997098,86.9264549 62.9997098,86.9264549" id="Fill-62" fill="#E9D6B8"></path>
                <path d="M77.0397608,267.428651 L77.1060353,270.502769 L94.1946627,270.140808 L94.4189765,261.871788 L84.1107412,261.749435 C84.1107412,261.749435 78.6558392,266.954533 77.0397608,267.428651" id="Fill-64" fill="#161711"></path>
                <path d="M89.6521569,122.230376 C89.6521569,122.230376 81.8776471,173.058847 73.1243137,195.480024 C65.3701961,215.341984 55.2913725,189.928259 55.2913725,189.928259 L68.4086275,104.648259 L92.9607843,102.259827 C92.9607843,102.259827 94.6635294,102.848651 89.6521569,122.230376" id="Fill-67" fill="#163F59"></path>
                <path d="M73.552498,106.728157 L71.2226941,139.442275 L75.5356353,141.857725 C75.5356353,141.857725 79.0328902,190.305412 79.8944588,192.742275 C84.7987725,206.680314 96.554851,198.008549 98.0842627,193.292863 C99.6085765,188.577176 101.586616,153.887569 100.510929,128.629333 L99.4301451,103.36702 L73.552498,106.728157" id="Fill-69" fill="#194866"></path>
                <path d="M80.6489686,179.706537 C80.6489686,179.706537 78.8595569,188.3834 79.4917137,204.717518 C79.8944588,215.066537 81.4850471,242.458302 83.819949,262.824969 C83.9626941,264.073988 94.1332824,262.911635 94.1332824,262.911635 C94.1332824,262.911635 98.9356353,196.540263 99.2109294,183.7034 C99.292498,179.833988 88.5968118,170.39242 80.6489686,179.706537" id="Fill-71" fill="#194866"></path>
                <path d="M77.3608353,39.1525255 L93.3482863,35.5767608 L101.551031,44.8052314 C101.551031,44.8052314 107.632992,52.9605647 107.765541,71.2808784 C107.89809,89.6424863 101.68358,123.660173 101.68358,123.660173 L65.0847569,111.897976 C65.0847569,111.897976 66.787502,47.4286824 77.3608353,39.1525255" id="Fill-73" fill="#F4DA80"></path>
                <path d="M97.0647059,44.1141412 C97.0647059,44.1141412 104.130588,47.7480235 100.740392,58.2494745 C94.9643137,76.1486902 82.9023529,90.8927294 80.6337255,93.8434745 C78.36,96.7962588 70.432549,103.944729 65.1407843,101.579749 L59.8541176,99.2168078 L59.4921569,87.2833176 L62.9996078,86.9264549 L65.0796078,86.5359451 C65.0796078,86.5359451 72.4054902,74.9083373 78.5282353,63.5850824 C84.6509804,52.2648863 97.0647059,44.1141412 97.0647059,44.1141412" id="Fill-76" fill="#E8BB46"></path>
                <polygon id="Fill-78" fill="#E8BB46" points="78.9156863 38.5729804 81.6584314 46.2990588 96.0603922 38.7605882 94.5564706 34.4802745"></polygon>
                <polygon id="Fill-80" fill="#E8BB46" points="78.1763686 36.6475529 78.5077412 38.3747686 75.2755843 43.0756706 75.362251 39.2200235"></polygon>
                <path d="M59.3850471,188.694329 C59.3850471,188.694329 62.2603412,189.566094 71.3501451,189.698643 C80.4042627,189.831192 61.2356353,263.090016 61.2356353,263.090016 L48.2815176,258.639427 L55.9795569,185.136408 L59.3850471,188.694329" id="Fill-82" fill="#163F59"></path>
                <path d="M60.2211765,262.31022 L59.1403922,268.718455 L52.6301961,268.856102 C52.6301961,268.856102 47.7513725,268.958063 46.5278431,268.988651 C45.3094118,269.014141 37.9835294,269.167082 37.9835294,269.167082 L37.9376471,266.821984 C37.9376471,266.821984 48.0317647,263.09022 49.9843137,259.139239 C51.9317647,255.193357 60.2211765,262.31022 60.2211765,262.31022" id="Fill-84" fill="#161711"></path>
                <path d="M83.437698,4.57568627 L83.0706392,0.693529412 L81.4698549,0.848 L77.2384824,1.2512549 L74.6894627,1.49494118 C71.8702471,1.76411765 69.8055412,4.26929412 70.0706392,7.09156863 L70.4427961,10.9665882 L72.0435804,10.8121176 L76.2749529,10.4093725 L78.8239725,10.1661961 C81.6482863,9.89701961 83.7078941,7.39286275 83.437698,4.57568627" id="Fill-86" fill="#194866"></path>
                <path d="M93.7203922,27.3665216 C93.96,29.8701686 92.1196078,32.0944431 89.6164706,32.3345608 L79.3184314,33.3184824 C76.8101961,33.5580902 74.5823529,31.7212667 74.3427451,29.2155804 L72.374902,8.61644314 C72.1352941,6.10922745 73.9705882,3.88087451 76.4839216,3.64075686 L86.7819608,2.65632549 C89.285098,2.41824706 91.5129412,4.2571098 91.752549,6.76483529 L93.7203922,27.3665216" id="Fill-88" fill="#E9D6B8"></path>
                <path d="M83.3968627,0.663043137 C85.1760784,0.492258824 86.8380392,1.26512157 87.8831373,2.56614118 L89.6368627,2.39637647 C91.8188235,2.18888627 93.7611765,3.79272941 93.9701961,5.97418039 L94.9031373,15.7466118 L92.1196078,16.013749 L91.7372549,12.0377882 C91.5945098,10.504298 90.2231373,9.37712157 88.6886275,9.5239451 L87.067451,9.67790588 L82.8411765,10.0811608 L80.2870588,10.3253569 C77.4627451,10.5955529 74.9647059,8.52778824 74.6996078,5.70806275 L74.3019608,1.53276863 L83.3968627,0.663043137" id="Fill-90" fill="#194866"></path>
                <path d="M91.482302,18.6336314 C91.354851,17.2999843 92.3336745,16.1121412 93.6744588,15.9831608 L93.8732824,15.9663373 C95.2140667,15.8373569 96.4019098,16.8166902 96.5293608,18.1518667 L96.8097529,21.0919059 C96.9372039,22.4316706 95.9532824,23.6205333 94.6175961,23.7500235 L94.4187725,23.7678667 C93.4297529,23.8611608 92.522302,23.3493176 92.0583804,22.5336314" id="Fill-92" fill="#E9D6B8"></path>
            </g>
            <g id="group" transform="translate(88.000000, 64.000000)">
                <path d="M43.1039216,109.192455 L62.9913725,190.032573 C62.9913725,190.032573 78.7341176,198.23022 78.5505882,177.562769 C78.3619608,156.895318 74.1254902,110.855945 74.1254902,110.855945 L43.1039216,109.192455" id="Fill-1" fill="#163F59"></path>
                <path d="M33.1167098,112.133565 L33.6214157,198.510663 C33.6214157,198.510663 39.7390627,212.433408 43.8123961,207.794192 C46.9731804,204.200075 57.1590627,163.816467 60.8806314,136.731094 C61.9614157,128.854114 71.8822,117.081212 71.2398471,109.974035 C70.9390627,106.651643 33.1167098,112.133565 33.1167098,112.133565" id="Fill-3" fill="#194866"></path>
                <path d="M67.7019608,264.698353 L74.7423529,264.698353 L74.7423529,262.21051 L77.8011765,264.698353 L95.5576471,264.698353 C95.5576471,264.698353 95.2568627,261.323451 83.3121569,260.793255 C80.2482353,260.655608 78.1121569,255.817569 78.1121569,255.817569 C78.1121569,255.817569 76.5827451,254.216784 74.2835294,257.953647 C73.6870588,258.917176 67.2431373,257.056392 67.2431373,257.056392 C67.2431373,257.056392 66.6313725,262.032078 67.7019608,264.698353" id="Fill-5" fill="#081832"></path>
                <path d="M26.5300941,263.810612 L33.5704863,264.167475 L33.6520549,261.649043 L36.6344078,264.330612 L54.3908784,265.253357 C54.3908784,265.253357 54.1920549,261.817278 42.2677412,260.660024 C39.2089176,260.359239 37.2206824,255.347867 37.2206824,255.347867 C37.2206824,255.347867 35.742251,253.645122 33.3257804,257.310612 C32.6987216,258.258847 26.3057804,256.0412 26.3057804,256.0412 C26.3057804,256.0412 25.5410745,261.052573 26.5300941,263.810612" id="Fill-7" fill="#081832"></path>
                <path d="M34.1721569,178.123553 L25.3576471,257.020808 L38.0670588,257.87218 C38.0670588,257.87218 50.8835294,177.134533 49.532549,174.085906 C46.0301961,166.169671 34.5952941,175.528651 34.1721569,178.123553" id="Fill-9" fill="#194866"></path>
                <path d="M62.8028471,178.985071 L66.1267686,258.886639 L77.7859843,257.744678 C77.7859843,257.744678 81.1710824,176.767424 76.8836314,173.805463 C72.6012784,170.8486 62.8028471,175.283894 62.8028471,178.985071" id="Fill-11" fill="#163F59"></path>
                <path d="M60.6665647,45.5551098 C60.6665647,45.5551098 52.1630353,49.093149 62.5732314,74.6761294 C72.9783294,100.256051 78.3363686,96.9137765 78.3363686,96.9137765 L85.2289176,95.9721686 L97.2908784,79.1909529 L89.6183294,72.9754235 L88.2112706,73.6228745 C88.2112706,73.6228745 86.2995059,72.9004824 85.9426431,71.1258549 C85.5908784,69.3517373 81.0332314,61.8647569 76.3583294,47.0192667 C72.9069569,36.0457373 62.2979373,44.8633059 60.6665647,45.5551098" id="Fill-13" fill="#007FCF"></path>
                <path d="M95.420102,79.5636196 C95.420102,79.5636196 109.924024,87.490051 118.743631,88.4693843 C124.652259,89.1275412 112.447553,95.713698 100.309122,97.0249137 C88.1757882,98.3346 83.470298,97.7982863 80.8448078,93.527149 C78.2244157,89.255502 95.420102,79.5636196 95.420102,79.5636196" id="Fill-15" fill="#E2C59C"></path>
                <path d="M80.2583804,75.9603765 L84.4132824,72.878102 L86.1466157,71.7458275 C86.7481843,73.070298 88.2113216,73.6244549 88.2113216,73.6244549 L84.6783804,75.3083373 L80.9007333,78.0893176 L77.1791647,83.3408078 L80.2583804,75.9603765" id="Fill-17" fill="#0095EF"></path>
                <path d="M74.3446039,120.510969 L31.4038196,120.026145 L26.8053882,66.812302 C26.8053882,66.812302 22.6402902,37.5954392 38.3371529,35.9701843 C55.6093098,34.1843412 74.2987216,41.0208118 74.2987216,41.0208118 C74.2987216,41.0208118 84.1532314,45.4984196 74.3446039,120.510969" id="Fill-19" fill="#0095EF"></path>
                <path d="M69.9908784,4.86709804 C69.9908784,4.86709804 72.2646039,27.8618039 67.079898,30.5632549 C66.8555843,30.6759216 63.1595059,30.8370196 61.222251,32.575451 C59.407349,34.2144706 59.3257804,36.0609804 58.6834275,36.7879608 C58.4744078,37.026549 57.7249961,38.5748235 57.2559765,38.9862353 C55.2983294,40.7007059 53.7077412,38.5100784 52.6014667,38.006902 C49.909702,36.7813333 49.1959765,40.0364314 48.7830353,38.890902 C48.4975451,38.1052941 45.9842118,36.9184706 46.6163686,35.9258824 C47.9571529,33.8117255 51.3014667,25.1741176 51.1638196,23.4530196 C50.7508784,18.413098 45.3061725,9.10101961 54.1053882,3.43556863 C56.679898,1.78278431 69.3689176,3.38458824 69.9908784,4.86709804" id="Fill-21" fill="#E9D6B8"></path>
                <polygon id="Fill-23" fill="#007FCF" points="56.1293608 39.7030706 55.3391647 45.2543255 45.1175961 36.7676196 46.3003412 34.6937373"></polygon>
                <polygon id="Fill-25" fill="#007FCF" points="59.1321569 36.1184863 60.707451 37.4551922 60.7992157 43.3439373 56.7666667 39.8262902"></polygon>
                <path d="M67.1309294,30.2161804 C67.1309294,30.2161804 66.4121059,29.8226118 65.122302,28.9646118 C64.6940667,28.6791216 63.434851,27.8664941 62.7262235,27.6472784 C59.6062235,26.6817098 59.6928902,26.9865725 57.9187725,26.0332392 C55.894851,24.9488863 52.0866157,21.8044157 52.0866157,21.8044157 C52.0866157,21.8044157 53.3254392,24.1535922 53.8046549,25.100298 C54.6968118,26.8708471 56.0681843,27.7293569 57.2866157,28.2412 C62.5987725,30.4736314 62.2470078,30.8707686 62.9760275,30.8962588 C63.0219098,30.8962588 63.4195569,30.6933569 67.1309294,30.2161804" id="Fill-27" fill="#E2C59C"></path>
                <path d="M69.7055922,14.2800667 C69.6852,14.6996353 71.1738275,18.384498 71.4440235,19.0666157 C71.7193176,19.7492431 72.1016706,20.6087725 71.9793176,20.8504196 C71.8518667,21.0910471 71.1534353,21.7874392 70.8373569,22.0397922 C70.5263765,22.2916353 69.3334353,23.3443804 69.1295137,21.5865765 C68.9301804,19.8257137 69.7055922,14.2800667 69.7055922,14.2800667" id="Fill-29" fill="#E9D6B8"></path>
                <path d="M53.7281843,2.45276863 C57.9952431,-0.887976471 66.5854392,0.0220235294 72.4328902,5.62731765 C72.4328902,5.62731765 72.1881843,6.99359216 70.1591647,8.09884706 C70.1591647,8.09884706 66.7587725,3.6972 61.2121059,4.31814118 C55.3901451,4.9717098 59.3870078,7.79500392 58.0309294,9.2086902 C56.8889686,10.4011216 55.8183804,11.4120627 55.8183804,11.4120627 L54.9364196,14.6462588 L53.4121059,14.8134745 C53.4121059,14.8134745 52.6015176,11.3320235 51.8266157,12.3582588 C50.8834784,13.6042196 51.2964196,16.2123765 51.3219098,16.5835137 C51.342302,16.9572 51.3932824,17.5725333 51.2097529,17.6765333 C51.0670078,17.7560627 51.479949,19.7570431 51.0415176,23.1390824 C50.3277922,23.1482588 49.4458314,22.1582196 49.0175961,20.0124549 C48.0540667,15.186651 48.5179882,6.53374902 53.7281843,2.45276863" id="Fill-31" fill="#194866"></path>
                <path d="M67.7632392,20.7721137 C67.7632392,20.7721137 70.5314745,20.0996824 70.8169647,20.1776824 C71.1024549,20.2526235 71.8059843,20.3459176 71.8212784,20.6273294 C71.8416706,20.9056824 71.4083373,21.6204275 70.0369647,22.3841137 C69.7004941,22.5666235 69.8942196,21.8656431 67.7632392,20.7721137" id="Fill-34" fill="#E2C59C"></path>
                <path d="M19.8110314,92.1092824 L34.4780902,129.856184 C34.4780902,129.856184 31.5416196,131.035871 29.640051,129.709361 C24.4808353,126.109125 15.1055412,115.851871 11.6235804,110.073753 C6.85691373,102.165165 3.82358039,93.4189686 3.82358039,93.4189686 L19.8110314,92.1092824" id="Fill-36" fill="#E9D6B8"></path>
                <path d="M117.112157,89.4512667 L126.82902,83.8164039 L133.089412,84.5316588 C133.089412,84.5316588 133.798039,85.9993843 131.661961,87.0720118 C129.520784,88.1441294 126.82902,88.4693843 126.82902,88.4693843 L122.663922,94.6762471 C122.663922,94.6762471 126.727059,97.0830314 127.807843,96.5548745 C128.883529,96.0272275 133.114902,94.023698 133.114902,94.023698 C133.114902,94.023698 130.662745,99.2491882 128.052549,99.2491882 C125.437255,99.2491882 122.663922,99.2502078 120.701176,98.9234235 C118.743529,98.5961294 118.09098,93.0438549 116.128235,92.063502 C114.170588,91.0851882 117.112157,89.4512667 117.112157,89.4512667" id="Fill-38" fill="#E2C59C"></path>
                <path d="M29.0741176,129.50498 C29.0741176,129.50498 32.0768627,125.031451 33.4329412,124.549686 C34.7890196,124.076588 39.8462745,122.656275 39.8462745,122.656275 L41.1666667,122.412078 C41.1666667,122.412078 42.1964706,123.722784 38.7858824,124.639922 C35.3752941,125.557569 37.2564706,126.016902 37.2564706,126.016902 L40.6211765,126.362039 L44.7098039,127.107882 L46.5705882,127.206275 C46.5705882,127.206275 47.6360784,127.181294 47.8858824,127.392353 C48.6098039,128.005647 47.8603922,128.353333 47.8603922,128.353333 L40.5701961,128.591412 L47.3047059,130.210039 C47.3047059,130.210039 48.1254902,130.562824 48.094902,131.036941 C48.0694118,131.486078 47.7839216,131.440196 47.7839216,131.440196 L39.6882353,131.42949 L43.0580392,132.657608 C43.0580392,132.657608 43.8584314,133.022627 43.8482353,133.492157 C43.8431373,134.001451 43.8584314,134.140118 43.8584314,134.140118 L31.3121569,131.687961 L29.0741176,129.50498" id="Fill-94" fill="#E9D6B8"></path>
                <path d="M40.6721569,129.906247 L45.3368627,131.319933 C45.3368627,131.319933 46.412549,131.521816 46.8509804,131.930678 C47.3505882,132.403267 46.9427451,132.866169 46.9427451,132.866169 L39.6882353,131.429541 L40.6721569,129.906247" id="Fill-96" fill="#E9D6B8"></path>
                <path d="M36.2572039,61.8260118 L20.9528902,89.1494627 L21.2995569,93.2141294 L21.314851,96.5390706 L4.21602745,95.3568353 L-5.09803922e-05,84.0182863 L24.3481843,44.3382078 C24.3481843,44.3382078 32.3979882,32.8941294 39.9532824,38.0620118 C48.1662235,43.6820902 37.5011255,59.2846392 36.2572039,61.8260118" id="Fill-98" fill="#007FCF"></path>
                <path d="M5.82206275,86.2955804 C5.82206275,86.2955804 14.5804941,89.3416588 19.1993176,90.771149 L18.1134353,91.0240118 L19.0565725,93.2758157 L14.3408863,93.3502471 L7.62676863,92.5014235 L7.00480784,89.8703255 L9.04402353,89.6735412 L5.82206275,86.2955804" id="Fill-101" fill="#0095EF"></path>
            </g>
        </g>
    </g>
</svg>