<?xml version="1.0" encoding="UTF-8"?>
<svg width="158px" height="16px" viewBox="0 0 158 16" version="1.1" xmlns="http://www.w3.org/2000/svg" xmlns:xlink="http://www.w3.org/1999/xlink">
    <!-- Generator: Sketch 52.4 (67378) - http://www.bohemiancoding.com/sketch -->
    <title>atom/logo/poweredby</title>
    <desc>Created with Sketch.</desc>
    <g id="2.-Login" stroke="none" stroke-width="1" fill="none" fill-rule="evenodd">
        <g id="2.0-Login" transform="translate(-561.000000, -980.000000)">
            <g id="atom/logo/poweredby" transform="translate(561.000000, 976.000000)">
                <g id="atom/logo/gdpr" transform="translate(60.000000, 0.000000)">
                    <path d="M44.8757879,6.33324133 L93.6759362,6.33324133 C94.9442458,6.33324133 95.9724138,7.08496303 95.9724138,8.01225873 L95.9724138,15.9876493 C95.9724138,16.914945 94.9442458,17.6666667 93.6759362,17.6666667 L44.8757879,17.6666667 C43.6074784,17.6666667 42.5793103,16.914945 42.5793103,15.9876493 L42.5793103,8.01225873 C42.5793103,7.08496303 43.6074784,6.33324133 44.8757879,6.33324133 Z" id="Background" fill="#FFFFFF"></path>
                    <path d="M43.0226177,4.33324133 L95.5291064,4.33324133 C96.8937433,4.33324133 98,5.35027441 98,6.60484829 L98,17.3950597 C98,18.6496336 96.8937433,19.6666667 95.5291064,19.6666667 L43.0226177,19.6666667 C41.6579809,19.6666667 40.5517241,18.6496336 40.5517241,17.3950597 L40.5517241,6.60484829 C40.5517241,5.35027441 41.6579809,4.33324133 43.0226177,4.33324133 Z M49.0991745,9.72117986 L50.5737028,8.1796249 C50.1498301,7.79535131 49.656071,7.50491632 49.0924106,7.30831122 C48.5287501,7.11170613 47.9763712,7.01340506 47.4352572,7.01340506 C46.9843289,7.01340506 46.5379165,7.06925794 46.0960067,7.18096538 C45.654097,7.29267282 45.257286,7.46916793 44.9055619,7.710456 C44.5538378,7.95174407 44.2697572,8.26005198 44.0533116,8.63538897 C43.836866,9.01072597 43.7286448,9.46201726 43.7286448,9.98927637 C43.7286448,10.4182329 43.7985376,10.7823937 43.9383254,11.0817697 C44.0781132,11.3811456 44.2629911,11.6358348 44.4929645,11.8458447 C44.722938,12.0558547 44.9844725,12.2278816 45.2775759,12.3619305 C45.5706793,12.4959795 45.8705422,12.6121535 46.1771734,12.710456 C46.4928233,12.8087585 46.7746493,12.9003573 47.0226598,12.9852549 C47.2706704,13.0701526 47.4780944,13.1639854 47.6449378,13.2667563 C47.8117813,13.3695271 47.940294,13.483467 48.0304796,13.6085793 C48.1206653,13.7336917 48.1657575,13.8856115 48.1657575,14.0643434 C48.1657575,14.2520119 48.1296837,14.4128682 48.0575352,14.5469171 C47.9853867,14.6809661 47.8884385,14.7882036 47.7666879,14.8686329 C47.6449372,14.9490623 47.5028969,15.0071493 47.3405627,15.0428957 C47.1782285,15.0786421 47.0113875,15.096515 46.8400348,15.096515 C46.461255,15.096515 46.0802262,15.000448 45.6969372,14.8083112 C45.3136481,14.6161744 45.0047668,14.3771241 44.7702841,14.091153 L43.2551724,15.6193032 C43.6790451,16.0571963 44.2111325,16.3945478 44.8514507,16.6313675 C45.491769,16.8681873 46.1546237,16.9865954 46.8400348,16.9865954 C47.3090003,16.9865954 47.764431,16.9240402 48.2063408,16.7989278 C48.6482506,16.6738155 49.0405524,16.4816816 49.3832579,16.2225203 C49.7259634,15.9633591 49.998771,15.6349441 50.2016887,15.2372656 C50.4046065,14.8395872 50.5060638,14.3681888 50.5060638,13.8230565 C50.5060638,13.349417 50.4113703,12.9539786 50.2219804,12.6367295 C50.0325905,12.3194803 49.7936021,12.0536206 49.5050079,11.8391423 C49.2164138,11.624664 48.8962595,11.4526372 48.5445354,11.3230565 C48.1928113,11.1934759 47.8546201,11.0750678 47.5299517,10.9678287 C47.3044875,10.8963359 47.1015728,10.8270783 46.9212015,10.7600539 C46.7408301,10.6930294 46.5852622,10.6193036 46.454493,10.5388742 C46.3237238,10.4584449 46.224521,10.364612 46.1568818,10.2573729 C46.0892425,10.1501337 46.0554234,10.0160868 46.0554234,9.85522811 C46.0554234,9.66755962 46.0982609,9.51340566 46.1839373,9.39276163 C46.2696137,9.27211759 46.3755803,9.17381652 46.5018402,9.09785546 C46.6281002,9.0218944 46.7701404,8.97050975 46.9279654,8.94369996 C47.0857903,8.91689018 47.2413582,8.90348549 47.3946739,8.90348549 C47.6922866,8.90348549 48.0011678,8.97721129 48.321327,9.12466511 C48.6414861,9.27211893 48.900766,9.47095519 49.0991745,9.72117986 Z M52.0347033,16.7453085 L58.7174278,16.7453085 L58.7174278,14.788204 L54.2667874,14.788204 L54.2667874,12.8176946 L58.2439554,12.8176946 L58.2439554,10.9812335 L54.2667874,10.9812335 L54.2667874,9.19839165 L58.4739277,9.19839165 L58.4739277,7.25469192 L52.0347033,7.25469192 L52.0347033,16.7453085 Z M68.6738757,15.4316356 L67.0640696,13.9302951 C66.8566426,14.2162662 66.5815804,14.4486142 66.2388749,14.6273461 C65.8961694,14.806078 65.4948492,14.8954426 65.0349023,14.8954426 C64.6380853,14.8954426 64.2728388,14.8239509 63.9391519,14.6809654 C63.6054649,14.5379799 63.3191297,14.3391436 63.0801377,14.0844506 C62.8411457,13.8297577 62.6540132,13.5236839 62.5187347,13.1662201 C62.3834562,12.8087563 62.315818,12.415552 62.315818,11.9865954 C62.315818,11.5665754 62.3834562,11.1800735 62.5187347,10.827078 C62.6540132,10.4740825 62.8434003,10.1680087 63.0869016,9.90884742 C63.3304029,9.64968616 63.6212473,9.44638167 63.9594435,9.29892785 C64.2976398,9.15147403 64.6696501,9.07774822 65.0754856,9.07774822 C65.4452468,9.07774822 65.8059841,9.14923991 66.1577082,9.29222543 C66.5094323,9.43521096 66.7935129,9.65415425 67.0099585,9.9490619 L68.5791813,8.39410211 C68.1733458,7.93833576 67.6435129,7.59204789 66.9896668,7.35522811 C66.3358207,7.11840834 65.6707114,7.00000023 64.9943189,7.00000023 C64.263815,7.00000023 63.5829234,7.11617423 62.9516237,7.3485257 C62.3203241,7.58087718 61.7701998,7.91376035 61.3012343,8.34718522 C60.8322688,8.78061009 60.4647677,9.30562718 60.19872,9.92225224 C59.9326723,10.5388773 59.7996504,11.2269848 59.7996504,11.9865954 C59.7996504,12.7283328 59.9304177,13.4075039 60.1919561,14.0241289 C60.4534946,14.640754 60.8142318,15.1702393 61.2741787,15.6126008 C61.7341256,16.0549622 62.2774861,16.3967819 62.9042765,16.6380699 C63.5310669,16.879358 64.2142131,17.0000002 64.9537356,17.0000002 C65.7654066,17.0000002 66.4823719,16.859251 67.104653,16.5777482 C67.7269341,16.2962455 68.2500031,15.9142118 68.6738757,15.4316356 Z M77.7780734,13.1662201 L77.7780734,7.25469192 L75.4648226,7.25469192 L75.4648226,12.9785525 C75.4648226,13.2377138 75.4332581,13.4834665 75.3701281,13.7158179 C75.3069981,13.9481694 75.2032862,14.1559421 75.0589891,14.3391423 C74.914692,14.5223425 74.7275596,14.66756 74.4975861,14.7747992 C74.2676127,14.8820383 73.9902959,14.9356571 73.6656275,14.9356571 C73.3409591,14.9356571 73.0636423,14.8820383 72.8336689,14.7747992 C72.6036954,14.66756 72.4188176,14.5223425 72.2790298,14.3391423 C72.139242,14.1559421 72.03553,13.9481694 71.9678908,13.7158179 C71.9002515,13.4834665 71.8664324,13.2377138 71.8664324,12.9785525 L71.8664324,7.25469192 L69.5667094,7.25469192 L69.5667094,13.1662201 C69.5667094,13.7381622 69.6614029,14.258711 69.8507928,14.7278823 C70.0401827,15.1970535 70.3107357,15.5991943 70.6624598,15.9343166 C71.0141839,16.2694389 71.4425594,16.5308304 71.9475991,16.7184989 C72.4526389,16.9061674 73.0208,17.0000002 73.6520997,17.0000002 C74.2743808,17.0000002 74.8402874,16.9061674 75.3498364,16.7184989 C75.8593854,16.5308304 76.2945248,16.2694389 76.6552674,15.9343166 C77.0160101,15.5991943 77.2933269,15.1970535 77.4872261,14.7278823 C77.6811252,14.258711 77.7780734,13.7381622 77.7780734,13.1662201 Z M84.7719369,16.7453085 L87.4774934,16.7453085 L84.9748537,12.6836463 C85.5971348,12.4959778 86.0841301,12.1832017 86.4358542,11.7453085 C86.7875783,11.3074154 86.9634377,10.7667595 86.9634377,10.1233246 C86.9634377,9.57819232 86.8597257,9.12243281 86.6522987,8.7560324 C86.4448717,8.389632 86.1675549,8.09472879 85.8203401,7.87131391 C85.4731253,7.64789903 85.0808235,7.48927684 84.643423,7.39544259 C84.2060225,7.30160834 83.7573555,7.25469192 83.2974086,7.25469192 L79.6449074,7.25469192 L79.6449074,16.7453085 L81.9175748,16.7453085 L81.9175748,12.9785525 L82.7021862,12.9785525 L84.7719369,16.7453085 Z M84.6772425,10.1635391 C84.6772425,10.4048272 84.6253865,10.6014293 84.521673,10.7533514 C84.4179594,10.9052736 84.2849376,11.0214476 84.1226034,11.1018769 C83.9602692,11.1823063 83.7799005,11.2381591 83.5814921,11.2694372 C83.3830836,11.3007153 83.1891873,11.3163541 82.9997974,11.3163541 L81.904047,11.3163541 L81.904047,9.10455787 L83.1350752,9.10455787 C83.306428,9.10455787 83.484542,9.11796257 83.6694227,9.14477235 C83.8543033,9.17158214 84.0211443,9.22296679 84.1699506,9.29892785 C84.318757,9.37488891 84.4405058,9.48212644 84.5352007,9.62064366 C84.6298957,9.75916089 84.6772425,9.94012423 84.6772425,10.1635391 Z M88.6138272,16.7453085 L95.2965517,16.7453085 L95.2965517,14.788204 L90.8459113,14.788204 L90.8459113,12.8176946 L94.8230793,12.8176946 L94.8230793,10.9812335 L90.8459113,10.9812335 L90.8459113,9.19839165 L95.0530516,9.19839165 L95.0530516,7.25469192 L88.6138272,7.25469192 L88.6138272,16.7453085 Z" id="Secure" fill="#26CBE5"></path>
                    <path d="M8.96442169,16.1812081 C8.49498336,16.42282 7.94656124,16.619686 7.31913886,16.7718121 C6.69171648,16.9239381 6.00788148,17 5.26761335,17 C4.50026224,17 3.79385843,16.8791958 3.14838073,16.6375839 C2.50290303,16.3959719 1.94771026,16.0559306 1.48278576,15.6174497 C1.01786127,15.1789687 0.654503396,14.6532469 0.392701252,14.0402685 C0.130899108,13.42729 0,12.7449702 0,11.9932886 C0,11.2326584 0.13315599,10.5436272 0.399471963,9.9261745 C0.665787937,9.30872174 1.03365957,8.78299993 1.5030979,8.34899329 C1.97253622,7.91498664 2.52321523,7.58165664 3.15515144,7.34899329 C3.78708765,7.11632993 4.46866577,7 5.19990624,7 C5.95822969,7 6.66237662,7.11409282 7.31236815,7.34228188 C7.96235967,7.57047094 8.49046987,7.87695557 8.89671458,8.26174497 L7.43424095,9.91275168 C7.20854944,9.65324255 6.91064113,9.44071671 6.54050706,9.27516779 C6.170373,9.10961886 5.7505931,9.02684564 5.28115477,9.02684564 C4.87491007,9.02684564 4.50026779,9.1006704 4.1572167,9.24832215 C3.81416562,9.39597389 3.5162573,9.60178839 3.26348282,9.86577181 C3.01070834,10.1297552 2.81435967,10.4429512 2.67443094,10.8053691 C2.53450221,11.167787 2.46453889,11.5637562 2.46453889,11.9932886 C2.46453889,12.4317695 2.52773157,12.8344501 2.65411881,13.2013423 C2.78050605,13.5682345 2.96782719,13.8836676 3.21608784,14.147651 C3.4643485,14.4116344 3.77128434,14.6174489 4.13690457,14.7651007 C4.50252481,14.9127524 4.92004782,14.9865772 5.38948615,14.9865772 C5.66031596,14.9865772 5.91760041,14.9664432 6.16134723,14.9261745 C6.40509406,14.8859058 6.63078217,14.8210295 6.83841836,14.7315436 L6.83841836,13 L5.01032632,13 L5.01032632,11.147651 L8.96442169,11.147651 L8.96442169,16.1812081 Z M19.8111011,11.9798658 C19.8111011,12.8120847 19.6553763,13.5301983 19.343922,14.1342282 C19.0324678,14.7382581 18.6217154,15.2348974 18.1116526,15.6241611 C17.6015898,16.0134248 17.0260851,16.2997754 16.3851212,16.4832215 C15.7441573,16.6666676 15.0941756,16.7583893 14.4351564,16.7583893 L10.8602208,16.7583893 L10.8602208,7.25503356 L14.326825,7.25503356 C15.0038995,7.25503356 15.6719363,7.33333255 16.3309555,7.48993289 C16.9899747,7.64653322 17.5767638,7.90603846 18.0913404,8.26845638 C18.6059171,8.6308743 19.0211832,9.11632805 19.3371513,9.72483221 C19.6531194,10.3333364 19.8111011,11.0850067 19.8111011,11.9798658 Z M17.4007279,11.9798658 C17.4007279,11.4429503 17.3127095,10.9977646 17.1366702,10.6442953 C16.9606308,10.290826 16.7259151,10.0089496 16.4325162,9.79865772 C16.1391172,9.58836584 15.8050988,9.43847919 15.4304509,9.34899329 C15.055803,9.25950738 14.6698764,9.2147651 14.2726593,9.2147651 L13.1216384,9.2147651 L13.1216384,14.7718121 L14.2184936,14.7718121 C14.633766,14.7718121 15.033234,14.7248327 15.4169095,14.6308725 C15.8005851,14.5369123 16.1391172,14.3825514 16.4325162,14.1677852 C16.7259151,13.9530191 16.9606308,13.6666685 17.1366702,13.3087248 C17.3127095,12.9507812 17.4007279,12.5078326 17.4007279,11.9798658 Z M28.6130257,10.1812081 C28.6130257,10.7360207 28.5092092,11.2035775 28.301573,11.5838926 C28.0939368,11.9642077 27.8140836,12.2706923 27.4620048,12.5033557 C27.1099261,12.7360191 26.7036875,12.9060397 26.2432768,13.0134228 C25.7828661,13.1208059 25.3044073,13.1744966 24.807886,13.1744966 L23.6568651,13.1744966 L23.6568651,16.7583893 L21.3412818,16.7583893 L21.3412818,7.25503356 L24.8620517,7.25503356 C25.385656,7.25503356 25.8753992,7.30648718 26.331296,7.40939597 C26.7871929,7.51230477 27.184404,7.67785121 27.5229412,7.90604027 C27.8614785,8.13422933 28.1277904,8.43400262 28.3218851,8.80536913 C28.5159798,9.17673564 28.6130257,9.63534403 28.6130257,10.1812081 Z M26.2974425,10.1946309 C26.2974425,9.97091611 26.2523049,9.78747275 26.1620283,9.6442953 C26.0717517,9.50111785 25.9498801,9.38926215 25.7964098,9.30872483 C25.6429396,9.22818752 25.4691598,9.17449678 25.2750651,9.14765101 C25.0809704,9.12080523 24.880108,9.10738255 24.6724718,9.10738255 L23.6568651,9.10738255 L23.6568651,11.3489933 L24.6318475,11.3489933 C24.8485114,11.3489933 25.0561444,11.3310964 25.2547529,11.295302 C25.4533615,11.2595077 25.6316551,11.1968685 25.7896391,11.1073826 C25.9476232,11.0178966 26.0717517,10.8993296 26.1620283,10.7516779 C26.2523049,10.6040261 26.2974425,10.4183456 26.2974425,10.1946309 Z M35.1399914,16.7583893 L33.0681537,12.9865772 L32.2827512,12.9865772 L32.2827512,16.7583893 L30.0077922,16.7583893 L30.0077922,7.25503356 L33.6639763,7.25503356 C34.124387,7.25503356 34.5735063,7.30201295 35.0113479,7.39597315 C35.4491894,7.48993336 35.8418867,7.64876846 36.1894516,7.87248322 C36.5370165,8.09619799 36.8146129,8.39149705 37.0222491,8.75838926 C37.2298853,9.12528148 37.3337018,9.58165275 37.3337018,10.1275168 C37.3337018,10.7718153 37.1576651,11.3131969 36.8055863,11.7516779 C36.4535076,12.1901588 35.9660213,12.5033548 35.3431127,12.6912752 L37.8482759,16.7583893 L35.1399914,16.7583893 Z M35.0452014,10.1677852 C35.0452014,9.94407047 34.9978069,9.76286423 34.9030165,9.62416107 C34.808226,9.48545792 34.6863545,9.37807644 34.5373981,9.30201342 C34.3884417,9.2259504 34.2214325,9.17449678 34.0363654,9.14765101 C33.8512984,9.12080523 33.6730048,9.10738255 33.5014792,9.10738255 L32.2692098,9.10738255 L32.2692098,11.3221477 L33.366065,11.3221477 C33.5556459,11.3221477 33.7497377,11.3064879 33.9483462,11.2751678 C34.1469547,11.2438477 34.3275052,11.1879199 34.4900031,11.1073826 C34.652501,11.0268452 34.785657,10.9105153 34.889475,10.7583893 C34.9932931,10.6062632 35.0452014,10.4093972 35.0452014,10.1677852 Z" id="GDPR" fill="#455A73"></path>
                </g>
                <path d="M1.2935053,11.9829606 L3.20742491,11.9829606 C3.68737045,11.9751508 4.04829969,11.8267675 4.29022346,11.5378062 C4.52044124,11.2566546 4.6355484,10.9442687 4.6355484,10.600639 C4.6355484,10.3155825 4.58872515,10.0754358 4.49507724,9.88019169 C4.39752733,9.70447196 4.26095951,9.5658507 4.08536968,9.46432375 C3.82003393,9.29641379 3.51178085,9.21636489 3.16060118,9.22417465 L1.2935053,9.22417465 L1.2935053,11.9829606 Z M0,8 L3.0903656,8 C3.42593728,8 3.74979812,8.03123859 4.06195782,8.09371672 C4.37411752,8.17571926 4.69017448,8.3436267 5.01013817,8.59744409 C5.27937592,8.78878335 5.49788443,9.06212105 5.66567027,9.41746539 C5.8412601,9.76109508 5.9290537,10.1671968 5.9290537,10.6357827 C5.9290537,11.2683738 5.70664325,11.8443354 5.26181568,12.3636848 C4.80528211,12.9103684 4.13805076,13.1915157 3.26010159,13.2071353 L1.2935053,13.2071353 L1.2935053,16.5399361 L0,16.5399361 L0,8 Z M6.27945121,13.4941427 C6.27945121,12.8537419 6.33212737,12.3617341 6.43748127,12.0181044 C6.54673717,11.6822844 6.71452049,11.3991847 6.94083628,11.1687966 C7.10862212,10.9657427 7.34273838,10.7841684 7.6431921,10.6240682 C7.93974381,10.4717777 8.32018274,10.3917288 8.7845203,10.3839191 C9.26446584,10.3917288 9.65270865,10.4717777 9.94926037,10.6240682 C10.2419101,10.7841684 10.4682225,10.9657427 10.6282043,11.1687966 C10.8701281,11.3991847 11.0418134,11.6822844 11.1432653,12.0181044 C11.2408152,12.3617341 11.2895894,12.8537419 11.2895894,13.4941427 C11.2895894,14.1345435 11.2408152,14.6226465 11.1432653,14.9584665 C11.0418134,15.2942864 10.8701281,15.5851958 10.6282043,15.8312034 C10.5501644,15.9210157 10.4545669,16.0088743 10.341409,16.0947817 C10.2399571,16.1924038 10.1092422,16.2763575 9.94926037,16.3466454 C9.65270865,16.5145553 9.26446584,16.6024139 8.7845203,16.6102236 C8.32018274,16.6024139 7.93974381,16.5145553 7.6431921,16.3466454 C7.34273838,16.1943549 7.10862212,16.0225427 6.94083628,15.8312034 C6.71452049,15.5851958 6.54673717,15.2942864 6.43748127,14.9584665 C6.33212737,14.6226465 6.27945121,14.1345435 6.27945121,13.4941427 Z M10.0663197,13.5058573 C10.0663197,13.0724153 10.04681,12.7561245 10.00779,12.5569755 C9.96877006,12.3656362 9.88878033,12.1977288 9.76781845,12.0532481 C9.67807253,11.9165772 9.54540665,11.8091946 9.36981682,11.7310969 C9.20203098,11.6490944 9.00693409,11.6080937 8.7845203,11.6080937 C8.5777145,11.6080937 8.38651955,11.6490944 8.21092972,11.7310969 C8.04314388,11.8091946 7.90657606,11.9165772 7.80122216,12.0532481 C7.69586826,12.1977288 7.61978047,12.3656362 7.57295651,12.5569755 C7.52613256,12.7561245 7.50272093,13.0685105 7.50272093,13.4941427 C7.50272093,13.9158701 7.52613256,14.2243512 7.57295651,14.4195953 C7.61978047,14.6187443 7.69586826,14.7944614 7.80122216,14.9467519 C7.90657606,15.0638983 8.04314388,15.1673762 8.21092972,15.2571885 C8.38651955,15.3430959 8.5777145,15.386049 8.7845203,15.386049 C9.00693409,15.386049 9.20203098,15.3430959 9.36981682,15.2571885 C9.54540665,15.1673762 9.67807253,15.0638983 9.76781845,14.9467519 C9.88878033,14.7944614 9.96877006,14.6187443 10.00779,14.4195953 C10.04681,14.2243512 10.0663197,13.9197749 10.0663197,13.5058573 Z M15.9185044,12.2816826 L15.8950926,12.2816826 L14.6249991,16.5399361 L13.5480535,16.5399361 L11.6048691,10.4600639 L12.8983744,10.4600639 L14.0631145,14.7183174 L14.0865263,14.7183174 L15.4678261,10.4600639 L16.3516239,10.4600639 L17.7329236,14.7183174 L17.7563355,14.7183174 L18.9152226,10.4600639 L20.2087279,10.4600639 L18.2713964,16.5399361 L17.1885979,16.5399361 L15.9185044,12.2816826 Z M21.7531303,13.9627263 C21.7531303,14.4508367 21.8936001,14.821795 22.1745438,15.0756124 C22.4359775,15.3333346 22.7793481,15.4621938 23.2046657,15.4621938 C23.7002192,15.4621938 24.1430891,15.2650002 24.5332887,14.870607 L25.4170865,15.6261981 C24.7966691,16.2900282 24.0670067,16.6180334 23.2280775,16.6102236 C22.9081138,16.6102236 22.5959588,16.5633658 22.2916031,16.4696486 C22.1394252,16.4188851 21.9911516,16.3505507 21.8467777,16.2646432 C21.6945999,16.1904505 21.5521792,16.0986871 21.4195113,15.9893504 C21.1619795,15.7628672 20.9532259,15.4465764 20.793244,15.0404686 C20.6176542,14.6499803 20.5298606,14.1423531 20.5298606,13.5175719 C20.5298606,12.9162199 20.6059484,12.4164024 20.7581262,12.0181044 C20.9103041,11.6119965 21.105401,11.291801 21.3434227,11.057508 C21.5853465,10.8193101 21.8565312,10.6474979 22.1569849,10.542066 C22.4535366,10.4366342 22.7461819,10.3839191 23.0349297,10.3839191 C23.729485,10.3917288 24.3167266,10.620161 24.7966722,11.0692226 C25.2844217,11.5260939 25.5321948,12.1547706 25.5399987,12.9552716 L25.5399987,13.9627263 L21.7531303,13.9627263 Z M24.316729,12.9552716 C24.301121,12.4827807 24.1743081,12.1254893 23.9362863,11.8833866 C23.7021665,11.6529985 23.4017173,11.5378062 23.0349297,11.5378062 C22.668142,11.5378062 22.3676928,11.6529985 22.133573,11.8833866 C21.9033552,12.1254893 21.7765423,12.4827807 21.7531303,12.9552716 L24.316729,12.9552716 Z M26.6220169,10.4600639 L27.8452866,10.4600639 L27.8452866,11.1043663 L27.8686985,11.1043663 C28.2706041,10.6240658 28.7973657,10.3839191 29.4489991,10.3839191 C29.9367486,10.3917288 30.3620598,10.5479218 30.7249455,10.8525027 L29.8352948,11.9126731 C29.577763,11.7096191 29.3104803,11.6080937 29.0334385,11.6080937 C28.7212788,11.6080937 28.4539961,11.7096191 28.2315823,11.9126731 C27.9818546,12.1118221 27.8530906,12.4339701 27.8452866,12.8791267 L27.8452866,16.5399361 L26.6220169,16.5399361 L26.6220169,10.4600639 Z M31.7952577,13.9627263 C31.7952577,14.4508367 31.9357275,14.821795 32.2166712,15.0756124 C32.4781049,15.3333346 32.8214755,15.4621938 33.2467931,15.4621938 C33.7423466,15.4621938 34.1852165,15.2650002 34.5754162,14.870607 L35.4592139,15.6261981 C34.8387965,16.2900282 34.1091341,16.6180334 33.2702049,16.6102236 C32.9502412,16.6102236 32.6380862,16.5633658 32.3337305,16.4696486 C32.1815526,16.4188851 32.033279,16.3505507 31.8889051,16.2646432 C31.7367273,16.1904505 31.5943066,16.0986871 31.4616387,15.9893504 C31.2041069,15.7628672 30.9953533,15.4465764 30.8353714,15.0404686 C30.6597816,14.6499803 30.571988,14.1423531 30.571988,13.5175719 C30.571988,12.9162199 30.6480758,12.4164024 30.8002536,12.0181044 C30.9524315,11.6119965 31.1475284,11.291801 31.3855501,11.057508 C31.6274739,10.8193101 31.8986586,10.6474979 32.1991123,10.542066 C32.495664,10.4366342 32.7883093,10.3839191 33.0770571,10.3839191 C33.7716124,10.3917288 34.358854,10.620161 34.8387996,11.0692226 C35.3265491,11.5260939 35.5743222,12.1547706 35.5821262,12.9552716 L35.5821262,13.9627263 L31.7952577,13.9627263 Z M34.3588564,12.9552716 C34.3432485,12.4827807 34.2164355,12.1254893 33.9784137,11.8833866 C33.7442939,11.6529985 33.4438447,11.5378062 33.0770571,11.5378062 C32.7102694,11.5378062 32.4098202,11.6529985 32.1757004,11.8833866 C31.9454827,12.1254893 31.8186697,12.4827807 31.7952577,12.9552716 L34.3588564,12.9552716 Z M40.2988357,15.9014909 C39.8969301,16.3583622 39.3721194,16.5946041 38.7243881,16.6102236 C38.3576004,16.6024139 38.0434944,16.5262698 37.7820607,16.3817891 C37.5089209,16.2412134 37.2806576,16.0537818 37.0972637,15.8194888 C36.9294779,15.6281496 36.8182727,15.3684787 36.7636447,15.0404686 C36.6973108,14.728078 36.6641443,14.2126412 36.6641443,13.4941427 C36.6641443,12.7639296 36.6973108,12.244588 36.7636447,11.9361022 C36.8182727,11.6237116 36.9294779,11.3718504 37.0972637,11.1805112 C37.4406394,10.6689715 37.9830088,10.4034435 38.7243881,10.3839191 C39.0365478,10.3839191 39.3252911,10.4483487 39.5906269,10.5772098 C39.8364527,10.7138807 40.0725199,10.8895978 40.2988357,11.1043663 L40.2988357,8 L41.5221054,8 L41.5221054,16.5399361 L40.2988357,16.5399361 L40.2988357,15.9014909 Z M39.0989778,11.6080937 C38.8102301,11.6080937 38.5897706,11.656904 38.4375928,11.7545261 C38.2698069,11.8599579 38.1468959,12.0044364 38.068856,12.1879659 C37.994718,12.3714954 37.9459438,12.5706415 37.9225318,12.78541 C37.8991198,13.0157981 37.887414,13.25204 37.887414,13.4941427 C37.887414,13.7245308 37.8991198,13.9490582 37.9225318,14.1677316 C37.9459438,14.3981197 37.994718,14.6050754 38.068856,14.7886049 C38.1468959,14.9643246 38.2698069,15.1088031 38.4375928,15.2220447 C38.5897706,15.3313814 38.8102301,15.386049 39.0989778,15.386049 C39.3877255,15.386049 39.6159889,15.3274766 39.7837747,15.2103301 C39.9515606,15.0970885 40.0666677,14.9487052 40.1290997,14.7651757 C40.2071396,14.5816462 40.2598158,14.3766429 40.2871297,14.1501597 C40.2949337,13.9275814 40.2988357,13.7089113 40.2988357,13.4941427 C40.2988357,13.2598497 40.2949337,13.0353223 40.2871297,12.8205538 C40.2598158,12.6057852 40.2071396,12.4066392 40.1290997,12.2231097 C40.0666677,12.0395802 39.9515606,11.8911969 39.7837747,11.7779553 C39.6159889,11.6647137 39.3877255,11.6080937 39.0989778,11.6080937 Z M45.3600897,8 L46.5833595,8 L46.5833595,11.1043663 C46.8057732,10.8895978 47.0496444,10.7138807 47.3149801,10.5772098 C47.5608059,10.4483487 47.8397944,10.3839191 48.1519541,10.3839191 C48.8972354,10.4034435 49.4415557,10.6689715 49.7849314,11.1805112 C49.9527172,11.3718504 50.0678244,11.6237116 50.1302563,11.9361022 C50.1887863,12.244588 50.2180508,12.7639296 50.2180508,13.4941427 C50.2180508,14.2126412 50.1887863,14.728078 50.1302563,15.0404686 C50.0678244,15.3684787 49.9527172,15.6281496 49.7849314,15.8194888 C49.6171456,16.0537818 49.3966861,16.2412134 49.1235463,16.3817891 C48.8543086,16.5262698 48.5304478,16.6024139 48.1519541,16.6102236 C47.5120267,16.5946041 46.9891671,16.3583622 46.5833595,15.9014909 L46.5833595,16.5399361 L45.3600897,16.5399361 L45.3600897,8 Z M47.7832173,11.6080937 C47.5100776,11.6080937 47.29352,11.6647137 47.1335382,11.7779553 C46.9657523,11.8911969 46.8428413,12.0395802 46.7648014,12.2231097 C46.6906635,12.4066392 46.6418892,12.6057852 46.6184773,12.8205538 C46.5950653,13.0353223 46.5833595,13.2598497 46.5833595,13.4941427 C46.5833595,13.7089113 46.5950653,13.9275814 46.6184773,14.1501597 C46.6418892,14.3766429 46.6906635,14.5816462 46.7648014,14.7651757 C46.8428413,14.9487052 46.9657523,15.0970885 47.1335382,15.2103301 C47.29352,15.3274766 47.5100776,15.386049 47.7832173,15.386049 C48.071965,15.386049 48.3002284,15.3313814 48.4680142,15.2220447 C48.6358001,15.1088031 48.7548092,14.9643246 48.8250451,14.7886049 C48.903085,14.6050754 48.9557612,14.3981197 48.9830752,14.1677316 C48.9908792,13.9490582 48.9947811,13.7245308 48.9947811,13.4941427 C48.9947811,13.25204 48.9908792,13.0157981 48.9830752,12.78541 C48.9557612,12.5706415 48.903085,12.3714954 48.8250451,12.1879659 C48.7548092,12.0044364 48.6358001,11.8599579 48.4680142,11.7545261 C48.3002284,11.656904 48.071965,11.6080937 47.7832173,11.6080937 Z M50.5099187,10.4600639 L51.803424,10.4600639 L53.2432534,14.7183174 L53.2666653,14.7183174 L54.7006417,10.4600639 L56,10.4600639 L53.3837246,17.7992545 C53.2159387,18.2561258 52.9837734,18.5724166 52.6872217,18.7481363 C52.386768,18.9160463 52.0472994,19 51.6688058,19 L51.2649512,19 L51.2649512,17.8461129 L51.6219821,17.8461129 C51.7819639,17.8461129 51.9302375,17.8031598 52.0668074,17.7172524 C52.2033773,17.6274401 52.2989748,17.4946761 52.3536027,17.3189563 L52.6872217,16.299787 L50.5099187,10.4600639 Z" id="Powered-by" fill="#455A73"></path>
            </g>
        </g>
    </g>
</svg>