<?xml version="1.0" encoding="UTF-8"?>
<svg width="400px" height="200px" viewBox="0 0 400 200" version="1.1" xmlns="http://www.w3.org/2000/svg" xmlns:xlink="http://www.w3.org/1999/xlink">
    <!-- Generator: Sketch 52.2 (67145) - http://www.bohemiancoding.com/sketch -->
    <title>Artboard</title>
    <desc>Created with Sketch.</desc>
    <g id="Artboard" stroke="none" stroke-width="1" fill="none" fill-rule="evenodd">
        <path d="M121.84375,115.574219 L136.296875,115.574219 L136.296875,140.964844 L121.84375,140.964844 L121.84375,171.140625 L88.9335938,171.140625 L88.9335938,140.964844 L33.953125,140.964844 L32,120.847656 L88.9335938,29.2460938 L88.9335938,28.953125 L121.84375,28.953125 L121.84375,115.574219 Z M63.3476562,115.574219 L88.9335938,115.574219 L88.9335938,71.8242188 L86.8828125,75.1445312 L63.3476562,115.574219 Z M249.480469,113.035156 C249.480469,132.240981 245.167361,147.052031 236.541016,157.46875 C227.91467,167.885469 215.756589,173.09375 200.066406,173.09375 C184.246015,173.09375 172.006554,167.852917 163.347656,157.371094 C154.688759,146.889271 150.359375,132.110772 150.359375,113.035156 L150.359375,87.0585938 C150.359375,67.8527686 154.672483,53.0417188 163.298828,42.625 C171.925173,32.2082812 184.115807,27 199.871094,27 C215.626381,27 227.83329,32.240833 236.492188,42.7226562 C245.151085,53.2044795 249.480469,68.0155293 249.480469,87.15625 L249.480469,113.035156 Z M216.570312,82.859375 C216.570312,72.6379697 215.23569,65.0045825 212.566406,59.9589844 C209.897122,54.9133862 205.665394,52.390625 199.871094,52.390625 C194.207003,52.390625 190.089206,54.7343516 187.517578,59.421875 C184.945951,64.1093984 183.562501,71.2056816 183.367188,80.7109375 L183.367188,117.039062 C183.367188,127.651095 184.70181,135.414689 187.371094,140.330078 C190.040378,145.245467 194.272106,147.703125 200.066406,147.703125 C205.665393,147.703125 209.799466,145.310571 212.46875,140.525391 C215.138034,135.74021 216.505208,128.23703 216.570312,118.015625 L216.570312,82.859375 Z M353.484375,115.574219 L367.9375,115.574219 L367.9375,140.964844 L353.484375,140.964844 L353.484375,171.140625 L320.574219,171.140625 L320.574219,140.964844 L265.59375,140.964844 L263.640625,120.847656 L320.574219,29.2460938 L320.574219,28.953125 L353.484375,28.953125 L353.484375,115.574219 Z M294.988281,115.574219 L320.574219,115.574219 L320.574219,71.8242188 L318.523438,75.1445312 L294.988281,115.574219 Z" id="404" fill="#E3E3E8"></path>
    </g>
</svg>