<?xml version="1.0" encoding="UTF-8"?>
<svg width="400px" height="200px" viewBox="0 0 400 200" version="1.1" xmlns="http://www.w3.org/2000/svg" xmlns:xlink="http://www.w3.org/1999/xlink">
    <!-- Generator: Sketch 52.2 (67145) - http://www.bohemiancoding.com/sketch -->
    <title>Artboard</title>
    <desc>Created with Sketch.</desc>
    <g id="Artboard" stroke="none" stroke-width="1" fill="none" fill-rule="evenodd">
        <path d="M122.84375,115.574219 L137.296875,115.574219 L137.296875,140.964844 L122.84375,140.964844 L122.84375,171.140625 L89.9335938,171.140625 L89.9335938,140.964844 L34.953125,140.964844 L33,120.847656 L89.9335938,29.2460938 L89.9335938,28.953125 L122.84375,28.953125 L122.84375,115.574219 Z M64.3476562,115.574219 L89.9335938,115.574219 L89.9335938,71.8242188 L87.8828125,75.1445312 L64.3476562,115.574219 Z M250.480469,113.035156 C250.480469,132.240981 246.167361,147.052031 237.541016,157.46875 C228.91467,167.885469 216.756589,173.09375 201.066406,173.09375 C185.246015,173.09375 173.006554,167.852917 164.347656,157.371094 C155.688759,146.889271 151.359375,132.110772 151.359375,113.035156 L151.359375,87.0585938 C151.359375,67.8527686 155.672483,53.0417188 164.298828,42.625 C172.925173,32.2082812 185.115807,27 200.871094,27 C216.626381,27 228.83329,32.240833 237.492188,42.7226562 C246.151085,53.2044795 250.480469,68.0155293 250.480469,87.15625 L250.480469,113.035156 Z M217.570312,82.859375 C217.570312,72.6379697 216.23569,65.0045825 213.566406,59.9589844 C210.897122,54.9133862 206.665394,52.390625 200.871094,52.390625 C195.207003,52.390625 191.089206,54.7343516 188.517578,59.421875 C185.945951,64.1093984 184.562501,71.2056816 184.367188,80.7109375 L184.367188,117.039062 C184.367188,127.651095 185.70181,135.414689 188.371094,140.330078 C191.040378,145.245467 195.272106,147.703125 201.066406,147.703125 C206.665393,147.703125 210.799466,145.310571 213.46875,140.525391 C216.138034,135.74021 217.505208,128.23703 217.570312,118.015625 L217.570312,82.859375 Z M366.300781,113.035156 C366.300781,132.240981 361.987673,147.052031 353.361328,157.46875 C344.734983,167.885469 332.576901,173.09375 316.886719,173.09375 C301.066327,173.09375 288.826866,167.852917 280.167969,157.371094 C271.509071,146.889271 267.179688,132.110772 267.179688,113.035156 L267.179688,87.0585938 C267.179688,67.8527686 271.492795,53.0417188 280.119141,42.625 C288.745486,32.2082812 300.936119,27 316.691406,27 C332.446693,27 344.653603,32.240833 353.3125,42.7226562 C361.971397,53.2044795 366.300781,68.0155293 366.300781,87.15625 L366.300781,113.035156 Z M333.390625,82.859375 C333.390625,72.6379697 332.056003,65.0045825 329.386719,59.9589844 C326.717435,54.9133862 322.485706,52.390625 316.691406,52.390625 C311.027315,52.390625 306.909518,54.7343516 304.337891,59.421875 C301.766263,64.1093984 300.382813,71.2056816 300.1875,80.7109375 L300.1875,117.039062 C300.1875,127.651095 301.522122,135.414689 304.191406,140.330078 C306.86069,145.245467 311.092419,147.703125 316.886719,147.703125 C322.485705,147.703125 326.619778,145.310571 329.289062,140.525391 C331.958347,135.74021 333.325521,128.23703 333.390625,118.015625 L333.390625,82.859375 Z" id="400" fill="#E3E3E8"></path>
    </g>
</svg>