<?xml version="1.0" encoding="UTF-8"?>
<svg width="400px" height="200px" viewBox="0 0 400 200" version="1.1" xmlns="http://www.w3.org/2000/svg" xmlns:xlink="http://www.w3.org/1999/xlink">
    <!-- Generator: Sketch 52.2 (67145) - http://www.bohemiancoding.com/sketch -->
    <title>Artboard</title>
    <desc>Created with Sketch.</desc>
    <g id="Artboard" stroke="none" stroke-width="1" fill="none" fill-rule="evenodd">
        <path d="M36.7357903,101.609375 L45.4271966,28.953125 L128.532665,28.953125 L128.532665,54.5390625 L72.1850091,54.5390625 L68.9623528,82.7617188 C71.3061146,81.3945244 74.3822557,80.1901094 78.1908685,79.1484375 C81.9994813,78.1067656 85.7266575,77.5859375 89.3725091,77.5859375 C103.500184,77.5859375 114.356195,81.7688384 121.940868,90.1347656 C129.525542,98.5006929 133.317822,110.235602 133.317822,125.339844 C133.317822,134.454473 131.283337,142.706343 127.214306,150.095703 C123.145275,157.485063 117.432442,163.165345 110.075634,167.136719 C102.718826,171.108093 94.0275071,173.09375 84.0014153,173.09375 C75.0820999,173.09375 66.7162981,171.254576 58.9037591,167.576172 C51.09122,163.897768 44.9714896,158.852246 40.5443841,152.439453 C36.1172786,146.026661 33.9363108,138.783895 34.0014153,130.710938 L67.0092278,130.710938 C67.3347503,135.919297 68.9948899,140.05337 71.9896966,143.113281 C74.9845032,146.173192 78.9232659,147.703125 83.8061028,147.703125 C94.8738665,147.703125 100.407665,139.500082 100.407665,123.09375 C100.407665,107.924403 93.6368997,100.339844 80.0951653,100.339844 C72.4128353,100.339844 66.6837259,102.813777 62.9076653,107.761719 L36.7357903,101.609375 Z M249.121094,113.035156 C249.121094,132.240981 244.807986,147.052031 236.181641,157.46875 C227.555295,167.885469 215.397214,173.09375 199.707031,173.09375 C183.88664,173.09375 171.647179,167.852917 162.988281,157.371094 C154.329384,146.889271 150,132.110772 150,113.035156 L150,87.0585938 C150,67.8527686 154.313108,53.0417188 162.939453,42.625 C171.565798,32.2082812 183.756432,27 199.511719,27 C215.267006,27 227.473915,32.240833 236.132812,42.7226562 C244.79171,53.2044795 249.121094,68.0155293 249.121094,87.15625 L249.121094,113.035156 Z M365.121094,113.035156 C365.121094,132.240981 360.807986,147.052031 352.181641,157.46875 C343.555295,167.885469 331.397214,173.09375 315.707031,173.09375 C299.88664,173.09375 287.647179,167.852917 278.988281,157.371094 C270.329384,146.889271 266,132.110772 266,113.035156 L266,87.0585938 C266,67.8527686 270.313108,53.0417188 278.939453,42.625 C287.565798,32.2082812 299.756432,27 315.511719,27 C331.267006,27 343.473915,32.240833 352.132812,42.7226562 C360.79171,53.2044795 365.121094,68.0155293 365.121094,87.15625 L365.121094,113.035156 Z M216.203125,82.46875 C216.203125,72.2473447 214.868503,64.6139575 212.199219,59.5683594 C209.529935,54.5227612 205.298206,52 199.503906,52 C193.839815,52 189.722018,54.3437266 187.150391,59.03125 C184.578763,63.7187734 183.195313,70.8150566 183,80.3203125 L183,116.648438 C183,127.26047 184.334622,135.024064 187.003906,139.939453 C189.67319,144.854842 193.904919,147.3125 199.699219,147.3125 C205.298205,147.3125 209.432278,144.919946 212.101562,140.134766 C214.770847,135.349585 216.138021,127.846405 216.203125,117.625 L216.203125,82.46875 Z M332.203125,82.46875 C332.203125,72.2473447 330.868503,64.6139575 328.199219,59.5683594 C325.529935,54.5227612 321.298206,52 315.503906,52 C309.839815,52 305.722018,54.3437266 303.150391,59.03125 C300.578763,63.7187734 299.195313,70.8150566 299,80.3203125 L299,116.648438 C299,127.26047 300.334622,135.024064 303.003906,139.939453 C305.67319,144.854842 309.904919,147.3125 315.699219,147.3125 C321.298205,147.3125 325.432278,144.919946 328.101562,140.134766 C330.770847,135.349585 332.138021,127.846405 332.203125,117.625 L332.203125,82.46875 Z" id="503" fill="#E3E3E8"></path>
    </g>
</svg>