<?xml version="1.0" encoding="UTF-8"?>
<svg width="400px" height="200px" viewBox="0 0 400 200" version="1.1" xmlns="http://www.w3.org/2000/svg" xmlns:xlink="http://www.w3.org/1999/xlink">
    <!-- Generator: Sketch 52.2 (67145) - http://www.bohemiancoding.com/sketch -->
    <title>Artboard</title>
    <desc>Created with Sketch.</desc>
    <g id="Artboard" stroke="none" stroke-width="1" fill="none" fill-rule="evenodd">
        <path d="M36.7357903,101.707031 L45.4271966,29.0507812 L128.532665,29.0507812 L128.532665,54.6367188 L72.1850091,54.6367188 L68.9623528,82.859375 C71.3061146,81.4921807 74.3822557,80.2877656 78.1908685,79.2460938 C81.9994813,78.2044219 85.7266575,77.6835938 89.3725091,77.6835938 C103.500184,77.6835938 114.356195,81.8664946 121.940868,90.2324219 C129.525542,98.5983491 133.317822,110.333258 133.317822,125.4375 C133.317822,134.552129 131.283337,142.804 127.214306,150.193359 C123.145275,157.582719 117.432442,163.263001 110.075634,167.234375 C102.718826,171.205749 94.0275071,173.191406 84.0014153,173.191406 C75.0820999,173.191406 66.7162981,171.352232 58.9037591,167.673828 C51.09122,163.995424 44.9714896,158.949902 40.5443841,152.537109 C36.1172786,146.124317 33.9363108,138.881551 34.0014153,130.808594 L67.0092278,130.808594 C67.3347503,136.016953 68.9948899,140.151026 71.9896966,143.210938 C74.9845032,146.270849 78.9232659,147.800781 83.8061028,147.800781 C94.8738665,147.800781 100.407665,139.597738 100.407665,123.191406 C100.407665,108.02206 93.6368997,100.4375 80.0951653,100.4375 C72.4128353,100.4375 66.6837259,102.911434 62.9076653,107.859375 L36.7357903,101.707031 Z M249.333447,113.132812 C249.333447,132.338638 245.020339,147.149687 236.393993,157.566406 C227.767648,167.983125 215.609567,173.191406 199.919384,173.191406 C184.098992,173.191406 171.859532,167.950573 163.200634,157.46875 C154.541737,146.986927 150.212353,132.208429 150.212353,113.132812 L150.212353,87.15625 C150.212353,67.9504248 154.525461,53.139375 163.151806,42.7226562 C171.778151,32.3059375 183.968784,27.0976562 199.724072,27.0976562 C215.479359,27.0976562 227.686268,32.3384893 236.345165,42.8203125 C245.004063,53.3021357 249.333447,68.1131855 249.333447,87.2539062 L249.333447,113.132812 Z M216.42329,82.9570312 C216.42329,72.735626 215.088668,65.1022388 212.419384,60.0566406 C209.7501,55.0110425 205.518371,52.4882812 199.724072,52.4882812 C194.059981,52.4882812 189.942183,54.8320078 187.370556,59.5195312 C184.798929,64.2070547 183.415479,71.3033379 183.220165,80.8085938 L183.220165,117.136719 C183.220165,127.748751 184.554787,135.512345 187.224072,140.427734 C189.893356,145.343124 194.125084,147.800781 199.919384,147.800781 C205.51837,147.800781 209.652444,145.408227 212.321728,140.623047 C214.991012,135.837867 216.358186,128.334687 216.42329,118.113281 L216.42329,82.9570312 Z M296.501415,86.375 L312.028759,86.375 C324.333508,86.375 330.48579,80.3529248 330.48579,68.3085938 C330.48579,63.6210703 329.020961,59.7962388 326.091259,56.8339844 C323.161557,53.87173 319.027484,52.390625 313.688915,52.390625 C309.326914,52.390625 305.534635,53.6601436 302.311962,56.1992188 C299.08929,58.7382939 297.477978,61.8958145 297.477978,65.671875 L264.567822,65.671875 C264.567822,58.1848584 266.651134,51.511748 270.817822,45.6523438 C274.984509,39.7929395 280.762446,35.2194175 288.151806,31.9316406 C295.541166,28.6438638 303.662829,27 312.51704,27 C328.337432,27 340.772203,30.6132451 349.821728,37.8398438 C358.871252,45.0664424 363.395947,54.9947285 363.395947,67.625 C363.395947,73.7448223 361.524221,79.5227593 357.780712,84.9589844 C354.037204,90.3952095 348.584784,94.8059727 341.42329,98.1914062 C348.975411,100.925795 354.899831,105.076144 359.196728,110.642578 C363.493624,116.209012 365.64204,123.093709 365.64204,131.296875 C365.64204,143.992251 360.759277,154.148399 350.993603,161.765625 C341.227929,169.382851 328.402536,173.191406 312.51704,173.191406 C303.207098,173.191406 294.564606,171.417335 286.589306,167.869141 C278.614006,164.320946 272.575655,159.40563 268.474072,153.123047 C264.372489,146.840463 262.321728,139.695353 262.321728,131.6875 L295.427197,131.6875 C295.427197,136.049501 297.184992,139.825505 300.700634,143.015625 C304.216277,146.205745 308.54566,147.800781 313.688915,147.800781 C319.483215,147.800781 324.105565,146.189469 327.556103,142.966797 C331.006641,139.744125 332.731884,135.626327 332.731884,130.613281 C332.731884,123.451787 330.941537,118.373713 327.36079,115.378906 C323.780043,112.3841 318.832176,110.886719 312.51704,110.886719 L296.501415,110.886719 L296.501415,86.375 Z" id="503" fill="#E3E3E8"></path>
    </g>
</svg>