<?xml version="1.0" encoding="UTF-8"?>
<svg width="149px" height="48px" viewBox="0 0 149 48" version="1.1" xmlns="http://www.w3.org/2000/svg" xmlns:xlink="http://www.w3.org/1999/xlink">
    <!-- Generator: Sketch 51.1 (57501) - http://www.bohemiancoding.com/sketch -->
    <title>SIDEKICK</title>
    <desc>Created with Sketch.</desc>
    <defs></defs>
    <g id="0.1-Login" stroke="none" stroke-width="1" fill="none" fill-rule="evenodd">
        <g transform="translate(-566.000000, -100.000000)" fill="#FFFFFF" id="SIDEKICK">
            <path d="M584.308732,114.909306 L576.586279,114.909306 L576.586279,111.494961 C576.586279,109.901593 576.487527,108.886783 576.290021,108.450504 C576.092515,108.014224 575.763343,107.796088 575.302495,107.796088 C574.802146,107.796088 574.423598,108.090098 574.16684,108.678127 C573.910082,109.266156 573.781705,110.15767 573.781705,111.352697 C573.781705,112.88916 573.92654,114.046232 574.216216,114.823948 C574.492725,115.601664 575.276154,116.540599 576.566528,117.640782 C580.266477,120.808552 582.597015,123.407222 583.558212,125.43687 C584.519409,127.466519 585,130.738567 585,135.253112 C585,138.534693 584.733371,140.953164 584.200104,142.508595 C583.666837,144.064027 582.636529,145.368104 581.109148,146.420865 C579.581766,147.473627 577.804237,148 575.776507,148 C573.551271,148 571.651948,147.393011 570.078482,146.179016 C568.505016,144.965021 567.474708,143.419097 566.987526,141.541197 C566.500344,139.663298 566.256757,136.998239 566.256757,133.54594 L566.256757,130.529935 L573.97921,130.529935 L573.97921,136.135151 C573.97921,137.861301 574.087837,138.970952 574.305094,139.464138 C574.52235,139.957323 574.907482,140.203912 575.460499,140.203912 C576.013516,140.203912 576.424981,139.890934 576.694906,139.264967 C576.964832,138.639001 577.099792,137.70955 577.099792,136.476586 C577.099792,133.764065 576.843038,131.99052 576.329522,131.155898 C575.802839,130.321276 574.505901,128.927099 572.438669,126.973325 C570.371438,125.000583 569.002082,123.568469 568.330561,122.676941 C567.65904,121.785413 567.10274,120.552468 566.661642,118.978068 C566.220545,117.403667 566,115.393018 566,112.946058 C566,109.417884 566.312713,106.838182 566.93815,105.206876 C567.563586,103.57557 568.574144,102.299945 569.969854,101.379964 C571.365565,100.459984 573.050926,100 575.025988,100 C577.185388,100 579.02546,100.502662 580.546258,101.508002 C582.067055,102.513342 583.074322,103.779483 583.568087,105.306461 C584.061853,106.83344 584.308732,109.427368 584.308732,113.088322 L584.308732,114.909306 Z M596,101 L596,147 L588,147 L588,101 L596,101 Z M600,101 L606.138462,101 C610.100875,101 612.780335,101.265182 614.176923,101.795553 C615.573511,102.325924 616.635552,103.197235 617.363077,104.409512 C618.090602,105.621789 618.545298,106.971374 618.727179,108.458308 C618.909061,109.945241 619,112.866974 619,117.223595 L619,133.333539 C619,137.462858 618.866839,140.223588 618.600513,141.615812 C618.334187,143.008037 617.869747,144.097175 617.207179,144.883261 C616.544612,145.669347 615.726159,146.218652 614.751795,146.531192 C613.777431,146.843732 612.309412,147 610.347692,147 L600,147 L600,101 Z M608,109 L608,139 C609.244147,139 610.009764,138.65728 610.296875,137.971831 C610.583986,137.286382 610.727539,135.42255 610.727539,132.380282 L610.727539,114.661972 C610.727539,112.596234 610.679688,111.272303 610.583984,110.690141 C610.488281,110.107978 610.269533,109.680753 609.927734,109.408451 C609.585936,109.136149 608.943364,109 608,109 Z M622,101 L635.463014,101 L635.463014,110.205683 L630.073973,110.205683 L630.073973,118.928351 L635.117808,118.928351 L635.117808,127.679432 L630.073973,127.679432 L630.073973,137.794317 L636,137.794317 L636,147 L622,147 L622,101 Z M658.551657,101 L653.853801,121.769611 L659,147 L650.520468,147 L647.206628,127.281655 L647.206628,147 L639,147 L639,101 L647.206628,101 L647.206628,118.871526 L650.851852,101 L658.551657,101 Z M669,101 L669,147 L661,147 L661,101 L669,101 Z M692,121.055127 L683.537688,121.055127 L683.537688,113.031417 C683.537688,110.698269 683.447237,109.242445 683.266332,108.6639 C683.085426,108.085356 682.68677,107.796088 682.070352,107.796088 C681.373531,107.796088 680.931324,108.147003 680.743719,108.848844 C680.556113,109.550685 680.462312,111.068157 680.462312,113.401304 L680.462312,134.797866 C680.462312,137.03617 680.556113,138.496736 680.743719,139.179609 C680.931324,139.862481 681.353431,140.203912 682.01005,140.203912 C682.639869,140.203912 683.051925,139.862481 683.246231,139.179609 C683.440537,138.496736 683.537688,136.893907 683.537688,134.371073 L683.537688,128.595139 L692,128.595139 L692,130.38767 C692,135.148809 691.762146,138.525183 691.286432,140.516894 C690.810718,142.508605 689.758802,144.253697 688.130653,145.752223 C686.502504,147.250748 684.495824,148 682.110553,148 C679.631478,148 677.587948,147.364559 675.979899,146.093657 C674.371851,144.822756 673.306535,143.063437 672.78392,140.815649 C672.261304,138.567861 672,135.186745 672,130.672199 L672,117.213989 C672,113.894471 672.080401,111.404869 672.241206,109.74511 C672.402011,108.08535 672.881068,106.487263 673.678392,104.9508 C674.475716,103.414337 675.581232,102.205102 676.994975,101.323059 C678.408717,100.441015 680.033492,100 681.869347,100 C684.361822,100 686.418752,100.682862 688.040201,102.048607 C689.66165,103.414352 690.726966,105.116765 691.236181,107.155898 C691.745396,109.195031 692,112.367495 692,116.673385 L692,121.055127 Z M714.551657,101 L709.853801,121.769611 L715,147 L706.520468,147 L703.206628,127.281655 L703.206628,147 L695,147 L695,101 L703.206628,101 L703.206628,118.871526 L706.851852,101 L714.551657,101 Z"></path>
        </g>
    </g>
</svg>