<?xml version="1.0" encoding="UTF-8"?>
<svg width="93px" height="24px" viewBox="0 0 93 24" version="1.1" xmlns="http://www.w3.org/2000/svg" xmlns:xlink="http://www.w3.org/1999/xlink">
    <!-- Generator: Sketch 51.1 (57501) - http://www.bohemiancoding.com/sketch -->
    <title>logo</title>
    <desc>Created with Sketch.</desc>
    <defs>
        <polygon id="path-1" points="0 0 9.8321 0 9.8321 24 0 24"></polygon>
    </defs>
    <g id="Symbols" stroke="none" stroke-width="1" fill="none" fill-rule="evenodd">
        <g id="molecule/topbar/normal-p1" transform="translate(-25.000000, -18.000000)">
            <g id="logo" transform="translate(24.000000, 18.000000)">
                <g id="Group-3" transform="translate(1.000000, 0.000000)">
                    <mask id="mask-2" fill="white">
                        <use xlink:href="#path-1"></use>
                    </mask>
                    <g id="Clip-2"></g>
                </g>
                <path d="M14.122,24 L14.122,0 L17.233,0 L17.233,24 L14.122,24 Z M75.6099,0 C76.9229,0 78.0809,0.491 79.0489,1.459 C80.0179,2.429 80.5089,3.575 80.5089,4.867 L80.5089,7.691 L77.3989,7.691 L77.3989,4.801 C77.3809,4.366 77.2099,3.973 76.8729,3.619 C76.2099,2.955 75.0829,2.916 74.3719,3.628 C74.0439,3.973 73.8719,4.366 73.8539,4.819 L73.8539,19.1 C73.8539,19.588 74.0249,20 74.3759,20.36 C75.0859,21.088 76.1989,21.056 76.8779,20.36 C77.2279,20 77.3989,19.588 77.3989,19.1 L77.3989,16.309 L80.5089,16.309 L80.5089,19.133 C80.5089,20.425 80.0179,21.571 79.0489,22.54 C78.0809,23.509 76.9229,24 75.6099,24 C74.2959,24 73.1379,23.509 72.1709,22.54 C71.2019,21.571 70.7109,20.425 70.7109,19.133 L70.7109,4.867 C70.7109,3.575 71.2019,2.429 72.1709,1.459 C73.1379,0.491 74.2959,0 75.6099,0 Z M93.8638,0 L89.8358,10.034 L93.7878,24 L90.5388,24 L87.9578,14.774 L86.9108,17.382 L86.9108,24 L83.7998,24 L83.7998,0 L86.9108,0 L86.9108,9.002 L90.5128,0 L93.8638,0 Z M64.309,24 L64.309,0 L67.42,0 L67.42,24 L64.309,24 Z M57.9019,0 L61.2539,0 L57.2249,10.034 L61.1759,24 L57.9269,24 L55.3459,14.774 L54.2989,17.382 L54.2989,24 L51.1879,24 L51.1879,0 L54.2989,0 L54.2989,9.002 L57.9019,0 Z M33.644,13.555 L33.644,10.444 L43.476,10.444 L43.476,13.555 L33.644,13.555 Z M5.9331,0 C7.2461,0 8.4041,0.491 9.3721,1.459 C10.3411,2.429 10.8321,3.575 10.8321,4.867 L10.8321,7.691 L7.7211,7.691 L7.7211,4.801 C7.7041,4.366 7.5331,3.973 7.1961,3.619 C6.5331,2.956 5.4061,2.917 4.6941,3.628 C4.3661,3.973 4.1941,4.366 4.1761,4.819 L4.1771,6.365 C4.2791,6.832 4.5261,7.341 4.9101,7.88 C5.4341,8.634 6.2341,9.442 7.2891,10.287 C9.6751,12.252 10.8321,13.916 10.8321,15.377 L10.8321,19.1 C10.8321,20.531 10.3361,21.715 9.3591,22.619 C8.4431,23.463 7.3781,23.927 6.1931,23.999 L5.9001,24 C4.5861,24 3.4281,23.509 2.4591,22.54 C1.4921,21.571 0.9991,20.425 0.9991,19.133 L0.9991,14.201 L4.1111,14.201 L4.1111,19.199 C4.1281,19.634 4.3001,20.026 4.6361,20.381 C5.2991,21.043 6.4261,21.083 7.1381,20.372 C7.4661,20.027 7.6381,19.634 7.6561,19.18 L7.6561,16.102 C7.6561,15.931 7.6291,15.756 7.5771,15.582 C7.2581,14.566 6.2361,13.358 4.5411,11.999 C2.1601,10.131 0.9991,8.476 0.9991,6.942 L0.9991,4.899 C0.9991,3.608 1.4961,2.457 2.4761,1.476 C3.4561,0.497 4.6201,0 5.9331,0 Z M27.2114,19.1802 C27.1924,19.6342 27.0224,20.0272 26.6934,20.3722 C26.3454,20.7202 25.9404,20.8882 25.4544,20.8882 L23.6334,20.8882 L23.6334,3.1112 L25.4544,3.1112 C25.9404,3.1112 26.3454,3.2802 26.6854,3.6182 C27.0194,3.9712 27.1914,4.3602 27.2104,4.8102 L27.2114,19.1802 Z M25.4544,0.0002 L20.5224,0.0002 L20.5224,24.0002 L25.4544,24.0002 C26.7684,24.0002 27.9264,23.5092 28.8954,22.5402 C29.8624,21.5712 30.3554,20.4252 30.3554,19.1332 L30.3554,4.8672 C30.3554,3.5752 29.8624,2.4292 28.8954,1.4592 C27.9264,0.4912 26.7684,0.0002 25.4544,0.0002 Z" id="Fill-7" fill="#074265"></path>
                <polygon id="Fill-13" fill="#E95F24" points="36.297 24 46.129 24 46.129 20.889 36.297 20.889"></polygon>
                <polygon id="Fill-14" fill="#E95F24" points="36.297 3.111 46.129 3.111 46.129 0 36.297 0"></polygon>
            </g>
        </g>
    </g>
</svg>