<?xml version="1.0" encoding="UTF-8"?>
<svg width="80px" height="80px" viewBox="0 0 80 80" version="1.1" xmlns="http://www.w3.org/2000/svg" xmlns:xlink="http://www.w3.org/1999/xlink">
    <!-- Generator: Sketch 51.1 (57501) - http://www.bohemiancoding.com/sketch -->
    <title>icon/nodata</title>
    <desc>Created with Sketch.</desc>
    <defs></defs>
    <g id="6-Smart-Notes" stroke="none" stroke-width="1" fill="none" fill-rule="evenodd">
        <g id="6.0-Smartnote" transform="translate(-855.000000, -273.000000)">
            <g id="Group" transform="translate(101.000000, 151.000000)">
                <g id="icon/nodata" transform="translate(754.000000, 122.000000)">
                    <g id="icon">
                        <rect id="Rectangle" fill="#FFFFFF" x="0" y="0" width="80" height="80"></rect>
                        <path d="M59.2,6.2 C60.0836556,6.2 60.8,6.9163444 60.8,7.8 L70.4,67 L70.4032,67 L70.4,68.6 L70.4,67 L41.6,67 L41.6,6.2 L59.2,6.2 Z" id="Shape" fill="#F4F5FF"></path>
                        <path d="M75.2,9.4 L73.6,9.4 L73.6,7.8 C73.5971781,5.15020297 71.449797,3.00282194 68.8,3 L11.2,3 C8.55020297,3.00282194 6.40282194,5.15020297 6.4,7.8 L6.4,9.4 L4.8,9.4 C2.15020297,9.40282194 0.00282193747,11.550203 0,14.2 L0,71.8 C0.00282193747,74.449797 2.15020297,76.5971781 4.8,76.6 L75.2,76.6 C77.849797,76.5971781 79.9971781,74.449797 80,71.8 L80,14.2 C79.9971781,11.550203 77.849797,9.40282194 75.2,9.4 Z M68.8,6.2 C69.6836556,6.2 70.4,6.9163444 70.4,7.8 L70.4,67 L70.4032,67 L70.4,68.6 L70.4,67 L41.6,67 L41.6,6.2 L68.8,6.2 Z M9.6,7.8 C9.6,6.9163444 10.3163444,6.2 11.2,6.2 L38.4,6.2 L38.4,67 L9.6,67 L9.6,7.8 Z M76.8,71.8 C76.8,72.6836556 76.0836556,73.4 75.2,73.4 L4.8,73.4 C3.9163444,73.4 3.2,72.6836556 3.2,71.8 L3.2,14.2 C3.2,13.3163444 3.9163444,12.6 4.8,12.6 L6.4,12.6 L6.4,67 C6.4022918,68.766361 7.83363897,70.1977082 9.6,70.2 L70.4,70.2 C72.166361,70.1977082 73.5977082,68.766361 73.6,67 L73.6,12.6 L75.2,12.6 C76.0836556,12.6 76.8,13.3163444 76.8,14.2 L76.8,71.8 Z M30.4,15.8 C31.2836556,15.8 32,16.5163444 32,17.4 C32,18.2836556 31.2836556,19 30.4,19 L17.6,19 C16.7163444,19 16,18.2836556 16,17.4 C16,16.5163444 16.7163444,15.8 17.6,15.8 L30.4,15.8 Z M30.4,25.4 C31.2836556,25.4 32,26.1163444 32,27 C32,27.8836556 31.2836556,28.6 30.4,28.6 L17.6,28.6 C16.7163444,28.6 16,27.8836556 16,27 C16,26.1163444 16.7163444,25.4 17.6,25.4 L30.4,25.4 Z M30.4,35 C31.2836556,35 32,35.7163444 32,36.6 C32,37.4836556 31.2836556,38.2 30.4,38.2 L17.6,38.2 C16.7163444,38.2 16,37.4836556 16,36.6 C16,35.7163444 16.7163444,35 17.6,35 L30.4,35 Z M30.4,44.6 C31.2836556,44.6 32,45.3163444 32,46.2 C32,47.0836556 31.2836556,47.8 30.4,47.8 L17.6,47.8 C16.7163444,47.8 16,47.0836556 16,46.2 C16,45.3163444 16.7163444,44.6 17.6,44.6 L30.4,44.6 Z M49.6,19 C48.7163444,19 48,18.2836556 48,17.4 C48,16.5163444 48.7163444,15.8 49.6,15.8 L62.4,15.8 C63.2836556,15.8 64,16.5163444 64,17.4 C64,18.2836556 63.2836556,19 62.4,19 L49.6,19 Z M49.6,28.6 C48.7163444,28.6 48,27.8836556 48,27 C48,26.1163444 48.7163444,25.4 49.6,25.4 L62.4,25.4 C63.2836556,25.4 64,26.1163444 64,27 C64,27.8836556 63.2836556,28.6 62.4,28.6 L49.6,28.6 Z M49.6,38.2 C48.7163444,38.2 48,37.4836556 48,36.6 C48,35.7163444 48.7163444,35 49.6,35 L62.4,35 C63.2836556,35 64,35.7163444 64,36.6 C64,37.4836556 63.2836556,38.2 62.4,38.2 L49.6,38.2 Z M49.6,47.8 C48.7163444,47.8 48,47.0836556 48,46.2 C48,45.3163444 48.7163444,44.6 49.6,44.6 L62.4,44.6 C63.2836556,44.6 64,45.3163444 64,46.2 C64,47.0836556 63.2836556,47.8 62.4,47.8 L49.6,47.8 Z" id="Shape" fill="#C7D5EA"></path>
                    </g>
                </g>
            </g>
        </g>
    </g>
</svg>