<?xml version="1.0" encoding="UTF-8"?>
<svg width="640px" height="320px" viewBox="0 0 640 320" version="1.1" xmlns="http://www.w3.org/2000/svg" xmlns:xlink="http://www.w3.org/1999/xlink">
    <!-- Generator: Sketch 51.2 (57519) - http://www.bohemiancoding.com/sketch -->
    <title>Group 2</title>
    <desc>Created with Sketch.</desc>
    <defs>
        <linearGradient x1="50%" y1="24.3276593%" x2="50%" y2="143.404074%" id="linearGradient-1">
            <stop stop-color="#FEFEFF" offset="0%"></stop>
            <stop stop-color="#EBEBFF" offset="100%"></stop>
        </linearGradient>
        <linearGradient x1="96.9192887%" y1="69.8333973%" x2="50%" y2="100%" id="linearGradient-2">
            <stop stop-color="#FFFFFF" offset="0%"></stop>
            <stop stop-color="#FFFFFF" stop-opacity="0" offset="100%"></stop>
        </linearGradient>
        <linearGradient x1="10.1221626%" y1="75.5319856%" x2="50%" y2="100%" id="linearGradient-3">
            <stop stop-color="#FFFFFF" offset="0%"></stop>
            <stop stop-color="#FFFFFF" stop-opacity="0" offset="100%"></stop>
        </linearGradient>
        <path d="M320,320 C496.73112,320 640,271.4377 640,160 C640,71.63444 496.73112,0 320,0 C143.26888,0 1.082166e-14,71.63444 0,160 C0,290.351438 143.26888,320 320,320 Z" id="path-4"></path>
        <linearGradient x1="12.9894133%" y1="50%" x2="123.88456%" y2="110.194809%" id="linearGradient-6">
            <stop stop-color="#EDF6FF" offset="0%"></stop>
            <stop stop-color="#CEE1F6" offset="100%"></stop>
        </linearGradient>
        <linearGradient x1="6.69083784%" y1="31.2775402%" x2="109.01019%" y2="100%" id="linearGradient-7">
            <stop stop-color="#EDF6FF" offset="0%"></stop>
            <stop stop-color="#CFE6FF" offset="100%"></stop>
        </linearGradient>
        <polygon id="path-8" points="0.902307454 0.713 10.0419875 0.713 10.0419875 16.628367 0.902307454 16.628367"></polygon>
    </defs>
    <g id="4-Search" stroke="none" stroke-width="1" fill="none" fill-rule="evenodd">
        <g id="4.1-Search---No-data" transform="translate(-320.000000, -102.000000)">
            <g id="Group-2" transform="translate(320.000000, 102.000000)">
                <mask id="mask-5" fill="white">
                    <use xlink:href="#path-4"></use>
                </mask>
                <g id="Oval-3" fill-rule="nonzero">
                    <use fill="url(#linearGradient-1)" xlink:href="#path-4"></use>
                    <use fill="url(#linearGradient-2)" xlink:href="#path-4"></use>
                    <use fill="url(#linearGradient-3)" xlink:href="#path-4"></use>
                </g>
                <g id="Group-3" mask="url(#mask-5)">
                    <g transform="translate(84.000000, 10.000000)">
                        <path d="M192.313278,0.448555702 C177.930656,2.74757944 172.112425,10.9804748 169.765861,16.9284078 C168.819301,19.3314852 165.758565,20.2060985 163.708156,18.6185769 C160.1458,15.8555301 154.660566,13.6324374 148.00205,17.5752279 C136.046761,24.6565023 136,31.043148 136,31.0937687 C136,31.0937687 240.337064,41.3543046 274.374991,32.1989875 C280.857798,30.4567915 284.789993,23.4008275 282.188368,17.2560363 C280.80962,13.9966252 277.697873,11.2181109 270.798465,9.29593023 C262.773954,7.05877624 255.785275,11.0564059 251.340124,14.7939014 C249.464007,16.3729862 246.675337,15.4308786 245.937076,13.1023261 C244.989098,10.1157044 242.707717,6.88722829 237.541309,5.02129282 C229.888054,2.25683981 219.038031,8.64629783 212.655831,13.2134104 C210.937002,14.4423687 208.620195,13.1234181 208.751977,11.0268772 C209.065135,6.07026634 207.415739,0.00140613073 197.466933,0 C195.949318,0 194.23899,0.142019203 192.313278,0.448555702" id="Fill-1" fill="url(#linearGradient-6)"></path>
                        <path d="M406.57426,16 C402.73326,16.001 398.30826,16.51 393.22226,17.68 C354.23026,26.651 357.10626,40.235 357.10626,40.235 C357.10626,40.235 334.19026,27.689 326.56326,45.682 C320.65026,59.628 362.80726,69.884 382.06626,73.791 C388.25426,75.047 394.53526,75.645 400.85126,75.575 C423.62426,75.321 478.89426,72.308 473.50226,48.871 C466.72726,19.429 432.05826,38.603 432.05826,38.603 C432.05826,38.603 432.18126,16 406.57826,16 C406.57726,16 406.57526,16 406.57426,16" id="Fill-1" fill="url(#linearGradient-6)"></path>
                        <path d="M62.9935863,52 C59.9906625,52.0007818 56.5311629,52.398722 52.5548884,53.3134371 C22.070638,60.3270351 24.3191172,70.9471124 24.3191172,70.9471124 C24.3191172,70.9471124 6.40320931,61.1385516 0.440361089,75.2056196 C-4.18246853,86.1087114 28.7762036,94.1269324 43.8330404,97.1814556 C48.6708671,98.1634062 53.581402,98.6309272 58.5193002,98.5762007 C76.3234096,98.3776215 119.533928,96.0220346 115.31842,77.6988048 C110.021672,54.680819 82.9171767,69.6712021 82.9171767,69.6712021 C82.9171767,69.6712021 83.0133391,52 62.9967136,52 C62.9959318,52 62.9943681,52 62.9935863,52" id="Fill-1-Copy" fill="url(#linearGradient-7)"></path>
                    </g>
                </g>
                <g id="Group-53" mask="url(#mask-5)">
                    <g transform="translate(225.000000, 102.000000)">
                        <path d="M34.836,27.6933 L17.287,39.1333 L22.703,53.0033 C22.779,53.2013 22.883,53.3803 22.969,53.5713 C23.354,53.5473 23.74,53.5263 24.128,53.5263 C24.193,53.5263 24.255,53.5323 24.32,53.5343 C24.38,53.5343 24.44,53.5263 24.503,53.5263 C29.201,53.5263 33.237,56.4153 35.688,60.3053 C38.528,60.0913 41.352,59.4013 43.974,58.1543 C45.757,57.3073 47.312,56.2953 47.875,55.1983 C49.755,45.3623 34.836,27.6933 34.836,27.6933" id="Fill-24" fill="#F4D4C3"></path>
                        <path d="M57.1587,31.2792 C57.1587,31.2792 59.3067,51.6492 54.9817,64.6182 C56.9897,66.3622 64.3647,74.2682 66.6847,64.0242 C69.0017,53.7762 64.0797,27.6932 64.0797,27.6932 L57.1587,31.2792" id="Fill-26" fill="#F4D4C3"></path>
                        <polygon id="Fill-28" fill="#1B2B57" points="46.6299 29.8368 42.4999 32.4928 43.9739 35.5758 48.4029 33.6228"></polygon>
                        <path d="M44.1978,33.5448 C44.6118,34.4848 44.6408,35.3868 44.2628,35.5508 C43.8858,35.7168 43.2448,35.0868 42.8308,34.1448 C42.4168,33.2008 42.3878,32.3028 42.7658,32.1388 C43.1428,31.9728 43.7838,32.5998 44.1978,33.5448" id="Fill-30" fill="#1B2B57"></path>
                        <path d="M96.4497,14.8134 C96.4517,14.7744 96.4627,14.7384 96.4657,14.6964 C95.6867,12.9274 94.3197,10.1184 92.4727,7.5324 C89.4887,3.3554 88.6377,1.2664 88.6377,1.2664 L45.9967,29.1724 L48.7577,34.3834 L96.4547,16.7584 C96.4107,16.1074 96.3977,15.4574 96.4497,14.8134" id="Fill-32" fill="#003F5F"></path>
                        <polygon id="Fill-34" fill="#E7BFA9" points="30.9634 60.3134 29.4294 69.8904 42.9974 69.8904 43.9734 58.1544"></polygon>
                        <path d="M66.002,84.0761 C66.002,84.0761 82.028,78.9721 87.051,72.1091 C92.072,65.2481 83.572,27.6931 83.572,27.6931 L84.671,20.9331 C85.289,17.1291 82.372,13.6681 78.515,13.6311 L74.234,13.5951 C72.453,13.5791 71.252,15.4101 71.974,17.0401 L77.606,29.7091 C77.606,29.7091 81.833,58.1541 75.914,60.3131 C68.854,62.8291 60.864,63.4321 60.864,63.4321 L66.002,84.0761" id="Fill-36" fill="#F4D4C3"></path>
                        <path d="M35.8931,60.3134 L31.7731,51.1694 L34.4501,49.4904 C36.4301,48.2454 37.2941,45.8074 36.5411,43.5964 L33.6061,34.9824 C33.6061,34.9824 41.9551,33.9594 41.7031,26.1804 C41.7031,22.1754 36.1921,22.1524 36.1921,22.1524 C36.1921,22.1524 34.5441,25.7324 29.4301,26.1574 C27.2341,25.8784 21.2051,26.6884 17.1411,33.7874 C14.4061,38.5604 15.6041,46.0374 17.9841,51.6494 C20.1171,56.6774 25.5651,59.4854 30.9631,60.3134 L35.8931,60.3134" id="Fill-38" fill="#073A5D"></path>
                        <path d="M19.5991,137.1141 C19.5991,137.1141 20.4511,156.6081 24.6661,177.7391 C25.9091,183.9631 25.4431,190.4021 23.4161,196.4211 C13.8471,224.8471 0.4321,267.5941 0.4321,267.5941 L12.3651,267.5941 C12.3651,267.5941 39.4061,217.0741 46.3721,192.0111 C53.3381,166.9501 54.5341,158.9971 54.5341,158.9971 L46.2421,137.1141 L19.5991,137.1141" id="Fill-40" fill="#04324E"></path>
                        <path d="M29.5547,46.9149 C29.0627,48.3519 30.0567,50.2609 31.7737,51.1699 C33.4897,52.0809 35.2787,51.6539 35.7707,50.2119 C36.2607,48.7709 35.2677,46.8649 33.5517,45.9539 C31.8357,45.0419 30.0467,45.4719 29.5547,46.9149" id="Fill-42" fill="#E7BFA9"></path>
                        <path d="M58.5127,137.1141 L19.5987,137.1141 L19.5987,87.1931 C19.5987,76.2581 27.9247,67.1201 38.8127,66.1041 L65.8717,62.8291 C65.8717,62.8291 69.0517,67.6981 77.9187,79.0151 C67.2627,85.5991 54.9317,88.6331 54.9317,88.6331 L58.5127,137.1141" id="Fill-44" fill="#FF914C"></path>
                        <path d="M19.5991,137.1141 C19.5991,137.1141 25.0961,157.0051 45.3751,179.3021 C48.7571,182.6631 53.6381,189.6681 52.9421,199.5721 L48.7571,267.5941 L60.8641,267.5941 C60.8641,267.5941 75.6171,211.1051 72.4341,183.2601 C69.2521,155.4161 58.5131,137.1141 58.5131,137.1141 L19.5991,137.1141" id="Fill-46" fill="#07476D"></path>
                        <g id="Group-50" stroke-width="1" fill="none" transform="translate(87.000000, 0.287000)">
                            <mask id="mask-9" fill="white">
                                <use xlink:href="#path-8"></use>
                            </mask>
                            <g id="Clip-49"></g>
                            <path d="M2.9185,9.9014 C5.0125,14.2424 7.8505,17.2114 9.2625,16.5314 C10.6705,15.8514 10.1195,11.7814 8.0255,7.4404 C5.9315,3.0994 3.0925,0.1284 1.6845,0.8104 C0.2725,1.4904 0.8245,5.5574 2.9185,9.9014" id="Fill-48" fill="#FF914C" mask="url(#mask-9)"></path>
                        </g>
                        <path d="M55.4761,22.9696 L55.8351,23.1446 C57.1061,23.7506 58.5621,23.8396 59.8951,23.3946 L60.1381,23.3166 C62.3331,22.5836 64.0491,20.8446 64.7491,18.6386 C65.0621,17.6576 64.2001,16.7036 63.1921,16.9146 L60.4971,17.4826 C59.4481,17.7006 58.5281,18.3256 57.9401,19.2246 L55.4761,22.9696" id="Fill-51" fill="#F4D4C3"></path>
                    </g>
                </g>
                <g id="Group-11" mask="url(#mask-5)">
                    <g transform="translate(88.000000, 152.000000)">
                        <path d="M4.6798,64.248 C4.6798,64.248 -2.6332,97.157 1.0238,110.215 C2.3788,115.056 5.6718,118.748 9.2798,121.478 C16.9738,127.3 21.4588,136.416 21.2198,146.061 C20.9658,156.287 21.5528,167.815 25.0518,171.853 C31.8418,179.688 36.5438,182.299 36.5438,182.299 L50.6468,182.299 L50.6468,123.274 C50.6468,123.274 43.3338,107.603 25.8358,98.724 C8.3368,89.844 4.6798,64.248 4.6798,64.248" id="Fill-1" fill="#26A6A9"></path>
                        <path d="M42.5138,182.728 C42.0138,182.381 30.2748,173.903 30.2748,146.78 C30.2748,120.113 11.2598,96.677 11.0678,96.443 L11.8738,95.78 C12.0678,96.017 31.3198,119.743 31.3198,146.78 C31.3198,173.362 42.9918,181.789 43.1088,181.871 L42.5138,182.728" id="Fill-4" fill="#069194"></path>
                        <path d="M68.4069,179.6879 C68.4069,179.6879 77.8089,143.6449 77.8089,134.2439 C77.8089,128.7659 74.6179,121.5149 71.9539,116.4159 C69.7349,112.1699 68.7399,107.4029 69.0829,102.6229 C69.6249,95.0619 70.0519,83.7519 68.4069,77.8299 C68.0129,74.3089 61.6719,65.2369 51.6279,56.2269 C45.2989,50.5489 41.8609,42.3079 42.5129,33.8309 C44.9389,2.2899 31.8419,-0.0001 31.8419,-0.0001 C31.8419,-0.0001 38.1099,6.3899 23.4849,29.7739 C14.1249,44.7379 22.9479,63.8659 30.5159,75.7009 C35.3099,83.1989 37.0669,92.2349 35.4979,100.9949 C33.9969,109.3739 32.8399,119.4459 34.4539,125.3629 C35.8329,130.4189 38.1219,134.6659 40.2529,137.8369 C43.6499,142.8919 45.4919,148.8219 45.5819,154.9109 L45.9459,179.6879 L68.4069,179.6879" id="Fill-6" fill="#FFC839"></path>
                        <path d="M59.4831,179.8969 L58.5261,179.4789 C58.6951,179.0909 75.2631,140.3649 56.4711,109.0869 C35.2411,73.7479 30.3271,38.0049 30.2791,37.6479 L31.3161,37.5109 C31.3631,37.8659 36.2531,73.4039 57.3671,108.5479 C76.4401,140.2949 59.6541,179.5049 59.4831,179.8969" id="Fill-9" fill="#FEFEFE"></path>
                    </g>
                </g>
                <g id="Group-40" mask="url(#mask-5)">
                    <g transform="translate(380.000000, 243.500000) scale(-1, 1) translate(-380.000000, -243.500000) translate(336.000000, 113.000000)">
                        <path d="M77.6061,26.937 C76.7431,28.842 76.6131,30.998 77.2411,32.993 L78.3461,40.851 L79.6951,41.757 L84.7191,43.832 C84.1791,42.288 84.7191,40.687 84.7191,40.687 L86.9251,32.559 C86.9251,32.559 90.3561,18.844 81.0451,19.431 C81.0921,8.259 77.9811,10.104 77.9811,10.104 L77.6061,26.937" id="Fill-1" fill="#F4D4C3"></path>
                        <path d="M54.4386,54.0996 C54.4386,54.0996 60.9486,78.9446 66.5006,79.3886 C72.0516,79.8316 77.8246,40.0326 77.8246,40.0326 L85.3746,40.9446 C85.3746,40.9446 88.3086,98.1796 71.3726,99.2206 C54.4386,100.2636 52.2026,87.6056 52.2026,87.6056 L54.4386,54.0996" id="Fill-3" fill="#FED774"></path>
                        <path d="M53.7316,122.0264 L9.4286,122.0264 L9.4286,54.7404 C22.0866,35.4254 37.8606,40.6864 37.8606,40.6864 C37.8606,40.6864 52.2026,40.9444 54.4386,54.0994 C54.4386,63.6214 53.7316,122.0264 53.7316,122.0264" id="Fill-5" fill="#FF914C"></path>
                        <path d="M32.6823,31.7485 L32.0263,41.2605 L32.3383,41.5575 C35.4613,44.5285 40.3413,44.5965 43.5463,41.7145 L43.6943,34.5585 L32.6823,31.7485" id="Fill-7" fill="#F69C82"></path>
                        <path d="M29.2023,11.875 L30.0043,27.599 C31.5693,27.535 32.4873,29.215 32.1873,30.686 C32.3513,31.043 32.4413,31.439 32.4513,31.844 C35.1663,33.789 40.1003,36.324 46.4613,35.107 C56.4113,33.202 50.4083,13.967 50.4083,13.967 L29.2023,11.875" id="Fill-9" fill="#F4D4C3"></path>
                        <path d="M24.2003,23.685 C24.1273,22.532 22.5543,20.087 21.6803,19.33 C16.0463,14.456 21.0863,10.902 22.8733,9.753 C24.8493,8.482 24.4623,4.896 27.0233,2.893 C30.9323,-0.166 34.6993,3.004 37.2013,2.541 C39.7043,2.077 41.2593,-1.253 44.8983,0.511 C48.5383,2.275 48.1373,5.132 49.3043,6.339 C50.4713,7.544 52.6133,4.213 56.1633,8.019 C61.5633,13.809 50.9743,16.287 50.9743,16.287 C50.9743,16.287 45.1783,18.685 37.5043,15.675 C36.4523,15.261 35.2013,15.491 34.5353,16.402 C32.7043,18.907 32.6803,32.025 32.6803,32.025 L30.1213,29.897 C30.1213,29.897 24.5403,28.967 24.2003,23.685" id="Fill-11" fill="#1B2B57"></path>
                        <path d="M30.1701,24.9717 C30.6761,26.2067 32.0861,26.7987 33.3191,26.2927 C34.5541,25.7867 35.1441,24.3767 34.6381,23.1437 C34.1341,21.9087 32.7241,21.3187 31.4891,21.8227 C30.2561,22.3287 29.6651,23.7387 30.1701,24.9717" id="Fill-14" fill="#E7BFA9"></path>
                        <path d="M9.4582,54.7402 C9.4582,54.7402 -3.8208,85.3842 13.1222,101.0412 C30.0652,116.6962 53.0642,114.0312 53.0642,114.0312 L53.0642,105.2042 C53.0642,105.2042 32.2742,103.4462 25.6132,89.5492 C18.9522,75.6502 28.2782,63.6212 28.2782,63.6212" id="Fill-26" fill="#FF914C"></path>
                        <path d="M51.7082,112.8213 L62.3132,113.0433 C66.6192,112.8053 69.4852,106.3753 70.2002,101.5943 C70.3062,100.8773 69.6022,100.3073 68.9152,100.5453 C65.3162,101.7953 56.0612,105.0723 53.6662,106.5573 L51.7082,112.8213" id="Fill-28" fill="#F4D4C3"></path>
                        <path d="M53.7316,122.0264 C66.9436,159.3334 46.2926,241.9424 46.2926,241.9424 L34.5226,241.9424 C34.5226,241.9424 40.0746,124.8014 24.7516,122.0264 L53.7316,122.0264" id="Fill-30" fill="#04324E"></path>
                        <path d="M23.2482,80.2773 C23.3852,83.1813 24.0632,86.3123 25.6132,89.5483 C32.2742,103.4463 54.1482,105.2873 54.1482,105.2873 L54.1482,114.2033 C54.1482,114.2033 30.0652,116.6963 13.1222,101.0413 C6.9792,95.3643 4.8202,87.7193 4.5482,80.2773 L23.2482,80.2773" id="Fill-32" fill="#FED774"></path>
                        <path d="M23.3498,81.0292668 C22.8858,80.8259094 22.4178,80.6312673 21.9568,80.4162894 C21.1598,70.4721109 27.1648,62.9730634 27.2438,62.8801 L28.2878,63.6809409 C28.2108,63.7739043 22.2298,71.2516477 23.3498,81.0292668" id="Fill-34" fill="#F58A26"></path>
                        <path d="M79.6403,28.1172 C79.6403,28.1172 77.1973,27.3842 76.8143,22.9252 C76.4323,18.4662 74.3253,19.8452 74.3253,19.8452 C74.3253,19.8452 75.4203,37.4252 78.2243,38.0852 C81.0273,38.7472 79.6403,28.1172 79.6403,28.1172" id="Fill-36" fill="#F4D4C3"></path>
                        <path d="M40.7033,122.0264 C44.3003,167.7714 15.0913,241.9424 15.0913,241.9424 L1.1013,241.9424 C1.1013,241.9424 10.6093,194.5154 10.8023,150.0044 C10.8443,140.3714 10.4503,130.8754 9.4293,122.0264 L40.7033,122.0264" id="Fill-38" fill="#07476D"></path>
                    </g>
                </g>
                <g id="Group-19" mask="url(#mask-5)">
                    <g transform="translate(475.000000, 193.000000)">
                        <path d="M60.8271586,85 C60.8271586,85 104.341775,70.6958072 115.276987,50.1978647 C120.5454,40.3204524 113.067653,28.7850616 101.855446,29.0030428 C69.0707787,29.6415737 57,81.5860616 57,81.5860616 L60.8271586,85" id="Fill-1" fill="#26A6A9"></path>
                        <path d="M57.1632825,88 L56,87.3208791 C57.2054224,85.2945055 85.4125272,37.721978 113.037436,34 L114,35.1549451 C87.0216053,38.789011 57.4549348,87.5098901 57.1632825,88" id="Fill-3" fill="#069194"></path>
                        <path d="M27.3294472,51.6835321 C22.0684283,44.6897107 19.009334,38.4719964 17.3818245,33.0791036 C12.9635038,18.4437821 22.8187302,3.23274643 37.9661453,0.670817857 C46.4632585,-0.767360714 56.9474472,0.624317857 66.8082396,10.5664607 C88.4790509,32.4192464 59.2829566,92.075425 59.2829566,92.075425 L48.7475604,92.075425 C48.7475604,92.075425 48.3501453,79.6300321 27.3294472,51.6835321" id="Fill-5" fill="#FFC839"></path>
                        <path d="M36.6092364,92.0833171 C36.6092364,92.0833171 5.87621364,85.4836829 0.30135,62.3086829 C-1.43146818,55.0999024 4.54207727,48.261 12.0468727,48.6374634 C50.1053955,50.5494146 48.3514182,92.0833171 48.3514182,92.0833171 L36.6092364,92.0833171" id="Fill-8" fill="#26A6A9"></path>
                        <path d="M52.1241308,92 L50.832528,91.6968361 C50.9708362,91.0971227 63.8977544,31.2448462 31,2.5710506 L32.4255548,2 C65.9331723,31.2051593 52.263528,91.3936721 52.1241308,92" id="Fill-11" fill="#FEFEFE"></path>
                        <path d="M42.8379872,92 C42.6279183,91.6448429 21.4397048,56.3817133 1,54.2849628 L1.7573537,53 C22.8759128,55.1662377 43.1331893,89.845895 44,91.322775 L42.8379872,92" id="Fill-13" fill="#069194"></path>
                        <path d="M71.3037369,96 L26.6973713,96 C25.2134846,96 24,94.8758734 24,93.5 C24,92.1251541 25.2134846,91 26.6973713,91 L71.3037369,91 C72.7865154,91 74,92.1251541 74,93.5 C74,94.8758734 72.7865154,96 71.3037369,96" id="Fill-17" fill="#A1D6C4"></path>
                    </g>
                </g>
            </g>
        </g>
    </g>
</svg>